<svg width="28" height="16" viewBox="0 0 28 16" fill="none" xmlns="http://www.w3.org/2000/svg">
<path d="M2.99994 0H2V1.0001H2.99994V0Z" fill="#2D3341"/>
<path d="M3.99953 0H2.99951V1.0001H3.99953V0Z" fill="#2D3341"/>
<path d="M4.99945 0H3.99951V1.0001H4.99945V0Z" fill="#2D3341"/>
<path d="M5.99945 0H4.99951V1.0001H5.99945V0Z" fill="#7961AB"/>
<path d="M6.99953 0H5.99951V1.0001H6.99953V0Z" fill="#7961AB"/>
<path d="M7.99937 0H6.99951V1.0001H7.99937V0Z" fill="#7961AB"/>
<path d="M8.99953 0H7.99951V1.0001H8.99953V0Z" fill="#7961AB"/>
<path d="M9.99945 0H8.99951V1.0001H9.99945V0Z" fill="#7961AB"/>
<path d="M10.9995 0H9.99951V1.0001H10.9995V0Z" fill="#7961AB"/>
<path d="M11.9995 0H10.9995V1.0001H11.9995V0Z" fill="#7961AB"/>
<path d="M12.9995 0H11.9995V1.0001H12.9995V0Z" fill="#7961AB"/>
<path d="M13.999 0H12.999V1.0001H13.999V0Z" fill="#7961AB"/>
<path d="M14.9995 0H13.9995V1.0001H14.9995V0Z" fill="#7961AB"/>
<path d="M15.999 0H14.999V1.0001H15.999V0Z" fill="#7961AB"/>
<path d="M16.999 0H15.999V1.0001H16.999V0Z" fill="#7961AB"/>
<path d="M17.999 0H16.999V1.0001H17.999V0Z" fill="#7961AB"/>
<path d="M18.9986 0H17.9985V1.0001H18.9986V0Z" fill="#7961AB"/>
<path d="M19.999 0H18.999V1.0001H19.999V0Z" fill="#7961AB"/>
<path d="M20.9986 0H19.9985V1.0001H20.9986V0Z" fill="#7961AB"/>
<path d="M21.9985 0H20.9985V1.0001H21.9985V0Z" fill="#7961AB"/>
<path d="M22.9986 0H21.9985V1.0001H22.9986V0Z" fill="#7961AB"/>
<path d="M23.9986 0H22.9985V1.0001H23.9986V0Z" fill="#2D3341"/>
<path d="M24.9985 0H23.9985V1.0001H24.9985V0Z" fill="#2D3341"/>
<path d="M25.9986 0H24.9985V1.0001H25.9986V0Z" fill="#2D3341"/>
<path d="M2.00002 1.00012H1V2.00014H2.00002V1.00012Z" fill="#2D3341"/>
<path d="M2.99994 1.00012H2V2.00014H2.99994V1.00012Z" fill="#2D3341"/>
<path d="M3.99953 1.00012H2.99951V2.00014H3.99953V1.00012Z" fill="#2D3341"/>
<path d="M4.99945 1.00012H3.99951V2.00014H4.99945V1.00012Z" fill="#7057A6"/>
<path d="M5.99945 1.00012H4.99951V2.00014H5.99945V1.00012Z" fill="#7057A6"/>
<path d="M6.99953 1.00012H5.99951V2.00014H6.99953V1.00012Z" fill="#7057A6"/>
<path d="M7.99937 1.00012H6.99951V2.00014H7.99937V1.00012Z" fill="#7057A6"/>
<path d="M8.99953 1.00012H7.99951V2.00014H8.99953V1.00012Z" fill="#7057A6"/>
<path d="M9.99945 1.00012H8.99951V2.00014H9.99945V1.00012Z" fill="#7057A6"/>
<path d="M10.9995 1.00012H9.99951V2.00014H10.9995V1.00012Z" fill="#7057A6"/>
<path d="M11.9995 1.00012H10.9995V2.00014H11.9995V1.00012Z" fill="#7057A6"/>
<path d="M12.9995 1.00012H11.9995V2.00014H12.9995V1.00012Z" fill="#7057A6"/>
<path d="M13.999 1.00012H12.999V2.00014H13.999V1.00012Z" fill="#7057A6"/>
<path d="M14.9995 1.00012H13.9995V2.00014H14.9995V1.00012Z" fill="#7057A6"/>
<path d="M15.999 1.00012H14.999V2.00014H15.999V1.00012Z" fill="#7057A6"/>
<path d="M16.999 1.00012H15.999V2.00014H16.999V1.00012Z" fill="#7057A6"/>
<path d="M17.999 1.00012H16.999V2.00014H17.999V1.00012Z" fill="#7057A6"/>
<path d="M18.9986 1.00012H17.9985V2.00014H18.9986V1.00012Z" fill="#7057A6"/>
<path d="M19.999 1.00012H18.999V2.00014H19.999V1.00012Z" fill="#7057A6"/>
<path d="M20.9986 1.00012H19.9985V2.00014H20.9986V1.00012Z" fill="#7057A6"/>
<path d="M21.9985 1.00012H20.9985V2.00014H21.9985V1.00012Z" fill="#7057A6"/>
<path d="M23.0001 1.00012H22V2.00014H23.0001V1.00012Z" fill="#7057A6"/>
<path d="M23.9999 1.00012H23V2.00014H23.9999V1.00012Z" fill="#7057A6"/>
<path d="M24.9995 1.00012H23.9995V2.00014H24.9995V1.00012Z" fill="#2D3341"/>
<path d="M25.9995 1.00012H24.9995V2.00014H25.9995V1.00012Z" fill="#2D3341"/>
<path d="M26.9985 1.00012H25.9985V2.00014H26.9985V1.00012Z" fill="#2D3341"/>
<path d="M2.00002 2.00012H1V2.99998H2.00002V2.00012Z" fill="#2D3341"/>
<path d="M2.99994 2.00012H2V2.99998H2.99994V2.00012Z" fill="#2D3341"/>
<path d="M3.99953 2.00012H2.99951V2.99998H3.99953V2.00012Z" fill="#7961AB"/>
<path d="M4.99945 2.00012H3.99951V2.99998H4.99945V2.00012Z" fill="#7961AB"/>
<path d="M5.99945 2.00012H4.99951V2.99998H5.99945V2.00012Z" fill="#7961AB"/>
<path d="M6.99953 2.00012H5.99951V2.99998H6.99953V2.00012Z" fill="#2D3341"/>
<path d="M7.99937 2.00012H6.99951V2.99998H7.99937V2.00012Z" fill="#2D3341"/>
<path d="M8.99953 2.00012H7.99951V2.99998H8.99953V2.00012Z" fill="#2D3341"/>
<path d="M9.99945 2.00012H8.99951V2.99998H9.99945V2.00012Z" fill="#2D3341"/>
<path d="M10.9995 2.00012H9.99951V2.99998H10.9995V2.00012Z" fill="#2D3341"/>
<path d="M11.9995 2.00012H10.9995V2.99998H11.9995V2.00012Z" fill="#2D3341"/>
<path d="M12.9995 2.00012H11.9995V2.99998H12.9995V2.00012Z" fill="#2D3341"/>
<path d="M13.999 2.00012H12.999V2.99998H13.999V2.00012Z" fill="#2D3341"/>
<path d="M14.9995 2.00012H13.9995V2.99998H14.9995V2.00012Z" fill="#2D3341"/>
<path d="M15.999 2.00012H14.999V2.99998H15.999V2.00012Z" fill="#2D3341"/>
<path d="M16.999 2.00012H15.999V2.99998H16.999V2.00012Z" fill="#2D3341"/>
<path d="M17.999 2.00012H16.999V2.99998H17.999V2.00012Z" fill="#2D3341"/>
<path d="M18.9986 2.00012H17.9985V2.99998H18.9986V2.00012Z" fill="#2D3341"/>
<path d="M19.999 2.00012H18.999V2.99998H19.999V2.00012Z" fill="#2D3341"/>
<path d="M20.9986 2.00012H19.9985V2.99998H20.9986V2.00012Z" fill="#2D3341"/>
<path d="M21.9985 2.00012H20.9985V2.99998H21.9985V2.00012Z" fill="#2D3341"/>
<path d="M22.9986 2.00012H21.9985V2.99998H22.9986V2.00012Z" fill="#7961AB"/>
<path d="M23.9986 2.00012H22.9985V2.99998H23.9986V2.00012Z" fill="#7961AB"/>
<path d="M24.9985 2.00012H23.9985V2.99998H24.9985V2.00012Z" fill="#7961AB"/>
<path d="M25.9986 2.00012H24.9985V2.99998H25.9986V2.00012Z" fill="#2D3341"/>
<path d="M26.9985 2.00012H25.9985V2.99998H26.9985V2.00012Z" fill="#2D3341"/>
<path d="M0.999939 2.99997H0V4.00023H0.999939V2.99997Z" fill="#7961AB"/>
<path d="M2.00002 2.99997H1V4.00023H2.00002V2.99997Z" fill="#7961AB"/>
<path d="M2.99994 2.99997H2V4.00023H2.99994V2.99997Z" fill="#7961AB"/>
<path d="M3.99953 2.99997H2.99951V4.00023H3.99953V2.99997Z" fill="#7961AB"/>
<path d="M4.99945 2.99997H3.99951V4.00023H4.99945V2.99997Z" fill="#7961AB"/>
<path d="M5.99945 2.99997H4.99951V4.00023H5.99945V2.99997Z" fill="#7961AB"/>
<path d="M6.99953 2.99997H5.99951V4.00023H6.99953V2.99997Z" fill="#2D3341"/>
<path d="M7.99937 2.99997H6.99951V4.00023H7.99937V2.99997Z" fill="#3B594D"/>
<path d="M8.99953 2.99997H7.99951V4.00023H8.99953V2.99997Z" fill="#3B594D"/>
<path d="M9.99945 2.99997H8.99951V4.00023H9.99945V2.99997Z" fill="#3B594D"/>
<path d="M10.9995 2.99997H9.99951V4.00023H10.9995V2.99997Z" fill="#3B594D"/>
<path d="M11.9995 2.99997H10.9995V4.00023H11.9995V2.99997Z" fill="#3B594D"/>
<path d="M12.9995 2.99997H11.9995V4.00023H12.9995V2.99997Z" fill="#3B594D"/>
<path d="M13.999 2.99997H12.999V4.00023H13.999V2.99997Z" fill="#3B594D"/>
<path d="M14.9995 2.99997H13.9995V4.00023H14.9995V2.99997Z" fill="#3B594D"/>
<path d="M15.999 2.99997H14.999V4.00023H15.999V2.99997Z" fill="#3B594D"/>
<path d="M16.999 2.99997H15.999V4.00023H16.999V2.99997Z" fill="#3B594D"/>
<path d="M17.999 2.99997H16.999V4.00023H17.999V2.99997Z" fill="#3B594D"/>
<path d="M18.9986 2.99997H17.9985V4.00023H18.9986V2.99997Z" fill="#3B594D"/>
<path d="M19.999 2.99997H18.999V4.00023H19.999V2.99997Z" fill="#3B594D"/>
<path d="M20.9986 2.99997H19.9985V4.00023H20.9986V2.99997Z" fill="#3B594D"/>
<path d="M21.9985 2.99997H20.9985V4.00023H21.9985V2.99997Z" fill="#2D3341"/>
<path d="M22.9986 2.99997H21.9985V4.00023H22.9986V2.99997Z" fill="#7961AB"/>
<path d="M23.9986 2.99997H22.9985V4.00023H23.9986V2.99997Z" fill="#7961AB"/>
<path d="M24.9985 2.99997H23.9985V4.00023H24.9985V2.99997Z" fill="#7961AB"/>
<path d="M25.9986 2.99997H24.9985V4.00023H25.9986V2.99997Z" fill="#7961AB"/>
<path d="M26.9985 2.99997H25.9985V4.00023H26.9985V2.99997Z" fill="#7961AB"/>
<path d="M27.9986 2.99997H26.9985V4.00023H27.9986V2.99997Z" fill="#7961AB"/>
<path d="M0.999939 4.00024H0V5.0001H0.999939V4.00024Z" fill="#7961AB"/>
<path d="M2.00002 4.00024H1V5.0001H2.00002V4.00024Z" fill="#7961AB"/>
<path d="M2.99994 4.00024H2V5.0001H2.99994V4.00024Z" fill="#2D3341"/>
<path d="M3.99953 4.00024H2.99951V5.0001H3.99953V4.00024Z" fill="#7961AB"/>
<path d="M4.99945 4.00024H3.99951V5.0001H4.99945V4.00024Z" fill="#7961AB"/>
<path d="M5.99945 4.00024H4.99951V5.0001H5.99945V4.00024Z" fill="#7961AB"/>
<path d="M6.99953 4.00024H5.99951V5.0001H6.99953V4.00024Z" fill="#2D3341"/>
<path d="M7.99937 4.00024H6.99951V5.0001H7.99937V4.00024Z" fill="#49655A"/>
<path d="M8.99953 4.00024H7.99951V5.0001H8.99953V4.00024Z" fill="#49655A"/>
<path d="M9.99945 4.00024H8.99951V5.0001H9.99945V4.00024Z" fill="#49655A"/>
<path d="M10.9995 4.00024H9.99951V5.0001H10.9995V4.00024Z" fill="#49655A"/>
<path d="M11.9995 4.00024H10.9995V5.0001H11.9995V4.00024Z" fill="#49655A"/>
<path d="M12.9995 4.00024H11.9995V5.0001H12.9995V4.00024Z" fill="#49655A"/>
<path d="M13.999 4.00024H12.999V5.0001H13.999V4.00024Z" fill="#49655A"/>
<path d="M14.9995 4.00024H13.9995V5.0001H14.9995V4.00024Z" fill="#49655A"/>
<path d="M15.999 4.00024H14.999V5.0001H15.999V4.00024Z" fill="#49655A"/>
<path d="M16.999 4.00024H15.999V5.0001H16.999V4.00024Z" fill="#49655A"/>
<path d="M17.999 4.00024H16.999V5.0001H17.999V4.00024Z" fill="#49655A"/>
<path d="M18.9986 4.00024H17.9985V5.0001H18.9986V4.00024Z" fill="#49655A"/>
<path d="M19.999 4.00024H18.999V5.0001H19.999V4.00024Z" fill="#49655A"/>
<path d="M20.9986 4.00024H19.9985V5.0001H20.9986V4.00024Z" fill="#49655A"/>
<path d="M21.9985 4.00024H20.9985V5.0001H21.9985V4.00024Z" fill="#2D3341"/>
<path d="M22.9986 4.00024H21.9985V5.0001H22.9986V4.00024Z" fill="#7961AB"/>
<path d="M23.9986 4.00024H22.9985V5.0001H23.9986V4.00024Z" fill="#7961AB"/>
<path d="M24.9985 4.00024H23.9985V5.0001H24.9985V4.00024Z" fill="#7961AB"/>
<path d="M25.9986 4.00024H24.9985V5.0001H25.9986V4.00024Z" fill="#7961AB"/>
<path d="M26.9985 4.00024H25.9985V5.0001H26.9985V4.00024Z" fill="#7961AB"/>
<path d="M27.9986 4.00024H26.9985V5.0001H27.9986V4.00024Z" fill="#7961AB"/>
<path d="M0.999939 5H0V6.00002H0.999939V5Z" fill="#7961AB"/>
<path d="M2.00002 5H1V6.00002H2.00002V5Z" fill="#2D3341"/>
<path d="M2.99994 5H2V6.00002H2.99994V5Z" fill="#2D3341"/>
<path d="M3.99953 5H2.99951V6.00002H3.99953V5Z" fill="#2D3341"/>
<path d="M4.99945 5H3.99951V6.00002H4.99945V5Z" fill="#7961AB"/>
<path d="M5.99945 5H4.99951V6.00002H5.99945V5Z" fill="#7961AB"/>
<path d="M6.99953 5H5.99951V6.00002H6.99953V5Z" fill="#2D3341"/>
<path d="M7.99937 5H6.99951V6.00002H7.99937V5Z" fill="#49655A"/>
<path d="M8.99953 5H7.99951V6.00002H8.99953V5Z" fill="#49655A"/>
<path d="M9.99945 5H8.99951V6.00002H9.99945V5Z" fill="#49655A"/>
<path d="M10.9995 5H9.99951V6.00002H10.9995V5Z" fill="#49655A"/>
<path d="M11.9995 5H10.9995V6.00002H11.9995V5Z" fill="#49655A"/>
<path d="M12.9995 5H11.9995V6.00002H12.9995V5Z" fill="#49655A"/>
<path d="M13.999 5H12.999V6.00002H13.999V5Z" fill="#49655A"/>
<path d="M14.9995 5H13.9995V6.00002H14.9995V5Z" fill="#49655A"/>
<path d="M15.999 5H14.999V6.00002H15.999V5Z" fill="#49655A"/>
<path d="M16.999 5H15.999V6.00002H16.999V5Z" fill="#49655A"/>
<path d="M17.999 5H16.999V6.00002H17.999V5Z" fill="#49655A"/>
<path d="M18.9986 5H17.9985V6.00002H18.9986V5Z" fill="#49655A"/>
<path d="M19.999 5H18.999V6.00002H19.999V5Z" fill="#49655A"/>
<path d="M20.9986 5H19.9985V6.00002H20.9986V5Z" fill="#49655A"/>
<path d="M21.9985 5H20.9985V6.00002H21.9985V5Z" fill="#2D3341"/>
<path d="M22.9986 5H21.9985V6.00002H22.9986V5Z" fill="#7961AB"/>
<path d="M23.9986 5H22.9985V6.00002H23.9986V5Z" fill="#7961AB"/>
<path d="M24.9985 5H23.9985V6.00002H24.9985V5Z" fill="#7961AB"/>
<path d="M25.9986 5H24.9985V6.00002H25.9986V5Z" fill="#2D3341"/>
<path d="M26.9985 5H25.9985V6.00002H26.9985V5Z" fill="#2D3341"/>
<path d="M27.9986 5H26.9985V6.00002H27.9986V5Z" fill="#7961AB"/>
<path d="M0.999939 6.00003H0V7.00014H0.999939V6.00003Z" fill="#7961AB"/>
<path d="M2.00002 6.00003H1V7.00014H2.00002V6.00003Z" fill="#7961AB"/>
<path d="M2.99994 6.00003H2V7.00014H2.99994V6.00003Z" fill="#2D3341"/>
<path d="M3.99953 6.00003H2.99951V7.00014H3.99953V6.00003Z" fill="#7961AB"/>
<path d="M4.99945 6.00003H3.99951V7.00014H4.99945V6.00003Z" fill="#7961AB"/>
<path d="M5.99945 6.00003H4.99951V7.00014H5.99945V6.00003Z" fill="#7961AB"/>
<path d="M6.99953 6.00003H5.99951V7.00014H6.99953V6.00003Z" fill="#2D3341"/>
<path d="M7.99937 6.00003H6.99951V7.00014H7.99937V6.00003Z" fill="#49655A"/>
<path d="M8.99953 6.00003H7.99951V7.00014H8.99953V6.00003Z" fill="#49655A"/>
<path d="M9.99945 6.00003H8.99951V7.00014H9.99945V6.00003Z" fill="#49655A"/>
<path d="M10.9995 6.00003H9.99951V7.00014H10.9995V6.00003Z" fill="#49655A"/>
<path d="M11.9995 6.00003H10.9995V7.00014H11.9995V6.00003Z" fill="#49655A"/>
<path d="M12.9995 6.00003H11.9995V7.00014H12.9995V6.00003Z" fill="#49655A"/>
<path d="M13.999 6.00003H12.999V7.00014H13.999V6.00003Z" fill="#49655A"/>
<path d="M14.9995 6.00003H13.9995V7.00014H14.9995V6.00003Z" fill="#49655A"/>
<path d="M15.999 6.00003H14.999V7.00014H15.999V6.00003Z" fill="#49655A"/>
<path d="M16.999 6.00003H15.999V7.00014H16.999V6.00003Z" fill="#49655A"/>
<path d="M17.999 6.00003H16.999V7.00014H17.999V6.00003Z" fill="#49655A"/>
<path d="M18.9986 6.00003H17.9985V7.00014H18.9986V6.00003Z" fill="#49655A"/>
<path d="M19.999 6.00003H18.999V7.00014H19.999V6.00003Z" fill="#49655A"/>
<path d="M20.9986 6.00003H19.9985V7.00014H20.9986V6.00003Z" fill="#49655A"/>
<path d="M21.9985 6.00003H20.9985V7.00014H21.9985V6.00003Z" fill="#2D3341"/>
<path d="M22.9986 6.00003H21.9985V7.00014H22.9986V6.00003Z" fill="#7961AB"/>
<path d="M23.9986 6.00003H22.9985V7.00014H23.9986V6.00003Z" fill="#7961AB"/>
<path d="M24.9985 6.00003H23.9985V7.00014H24.9985V6.00003Z" fill="#7961AB"/>
<path d="M25.9986 6.00003H24.9985V7.00014H25.9986V6.00003Z" fill="#7961AB"/>
<path d="M26.9985 6.00003H25.9985V7.00014H26.9985V6.00003Z" fill="#7961AB"/>
<path d="M27.9986 6.00003H26.9985V7.00014H27.9986V6.00003Z" fill="#7961AB"/>
<path d="M0.999939 7.00015H0V8.00001H0.999939V7.00015Z" fill="#7961AB"/>
<path d="M2.00002 7.00015H1V8.00001H2.00002V7.00015Z" fill="#7961AB"/>
<path d="M2.99994 7.00015H2V8.00001H2.99994V7.00015Z" fill="#7961AB"/>
<path d="M3.99953 7.00015H2.99951V8.00001H3.99953V7.00015Z" fill="#7961AB"/>
<path d="M4.99945 7.00015H3.99951V8.00001H4.99945V7.00015Z" fill="#7961AB"/>
<path d="M5.99945 7.00015H4.99951V8.00001H5.99945V7.00015Z" fill="#7961AB"/>
<path d="M6.99953 7.00015H5.99951V8.00001H6.99953V7.00015Z" fill="#2D3341"/>
<path d="M7.99937 7.00015H6.99951V8.00001H7.99937V7.00015Z" fill="#49655A"/>
<path d="M8.99953 7.00015H7.99951V8.00001H8.99953V7.00015Z" fill="#49655A"/>
<path d="M9.99945 7.00015H8.99951V8.00001H9.99945V7.00015Z" fill="#49655A"/>
<path d="M10.9995 7.00015H9.99951V8.00001H10.9995V7.00015Z" fill="#49655A"/>
<path d="M11.9995 7.00015H10.9995V8.00001H11.9995V7.00015Z" fill="#49655A"/>
<path d="M12.9995 7.00015H11.9995V8.00001H12.9995V7.00015Z" fill="#49655A"/>
<path d="M13.999 7.00015H12.999V8.00001H13.999V7.00015Z" fill="#49655A"/>
<path d="M14.9995 7.00015H13.9995V8.00001H14.9995V7.00015Z" fill="#49655A"/>
<path d="M15.999 7.00015H14.999V8.00001H15.999V7.00015Z" fill="#49655A"/>
<path d="M16.999 7.00015H15.999V8.00001H16.999V7.00015Z" fill="#49655A"/>
<path d="M17.999 7.00015H16.999V8.00001H17.999V7.00015Z" fill="#49655A"/>
<path d="M18.9986 7.00015H17.9985V8.00001H18.9986V7.00015Z" fill="#49655A"/>
<path d="M19.999 7.00015H18.999V8.00001H19.999V7.00015Z" fill="#49655A"/>
<path d="M20.9986 7.00015H19.9985V8.00001H20.9986V7.00015Z" fill="#49655A"/>
<path d="M21.9985 7.00015H20.9985V8.00001H21.9985V7.00015Z" fill="#2D3341"/>
<path d="M22.9986 7.00015H21.9985V8.00001H22.9986V7.00015Z" fill="#7961AB"/>
<path d="M23.9986 7.00015H22.9985V8.00001H23.9986V7.00015Z" fill="#2D3341"/>
<path d="M24.9985 7.00015H23.9985V8.00001H24.9985V7.00015Z" fill="#2D3341"/>
<path d="M25.9986 7.00015H24.9985V8.00001H25.9986V7.00015Z" fill="#7961AB"/>
<path d="M26.9985 7.00015H25.9985V8.00001H26.9985V7.00015Z" fill="#7961AB"/>
<path d="M27.9986 7.00015H26.9985V8.00001H27.9986V7.00015Z" fill="#7961AB"/>
<path d="M0.999939 8H0V9.00002H0.999939V8Z" fill="#7961AB"/>
<path d="M2.00002 8H1V9.00002H2.00002V8Z" fill="#7961AB"/>
<path d="M2.99994 8H2V9.00002H2.99994V8Z" fill="#7961AB"/>
<path d="M3.99953 8H2.99951V9.00002H3.99953V8Z" fill="#7961AB"/>
<path d="M4.99945 8H3.99951V9.00002H4.99945V8Z" fill="#7961AB"/>
<path d="M5.99945 8H4.99951V9.00002H5.99945V8Z" fill="#7961AB"/>
<path d="M6.99953 8H5.99951V9.00002H6.99953V8Z" fill="#2D3341"/>
<path d="M7.99937 8H6.99951V9.00002H7.99937V8Z" fill="#49655A"/>
<path d="M8.99953 8H7.99951V9.00002H8.99953V8Z" fill="#49655A"/>
<path d="M9.99945 8H8.99951V9.00002H9.99945V8Z" fill="#49655A"/>
<path d="M10.9995 8H9.99951V9.00002H10.9995V8Z" fill="#49655A"/>
<path d="M11.9995 8H10.9995V9.00002H11.9995V8Z" fill="#49655A"/>
<path d="M12.9995 8H11.9995V9.00002H12.9995V8Z" fill="#49655A"/>
<path d="M13.999 8H12.999V9.00002H13.999V8Z" fill="#49655A"/>
<path d="M14.9995 8H13.9995V9.00002H14.9995V8Z" fill="#49655A"/>
<path d="M15.999 8H14.999V9.00002H15.999V8Z" fill="#49655A"/>
<path d="M16.999 8H15.999V9.00002H16.999V8Z" fill="#49655A"/>
<path d="M17.999 8H16.999V9.00002H17.999V8Z" fill="#49655A"/>
<path d="M18.9986 8H17.9985V9.00002H18.9986V8Z" fill="#49655A"/>
<path d="M19.999 8H18.999V9.00002H19.999V8Z" fill="#49655A"/>
<path d="M20.9986 8H19.9985V9.00002H20.9986V8Z" fill="#49655A"/>
<path d="M21.9985 8H20.9985V9.00002H21.9985V8Z" fill="#2D3341"/>
<path d="M22.9986 8H21.9985V9.00002H22.9986V8Z" fill="#7961AB"/>
<path d="M23.9986 8H22.9985V9.00002H23.9986V8Z" fill="#7961AB"/>
<path d="M24.9985 8H23.9985V9.00002H24.9985V8Z" fill="#7961AB"/>
<path d="M25.9986 8H24.9985V9.00002H25.9986V8Z" fill="#7961AB"/>
<path d="M26.9985 8H25.9985V9.00002H26.9985V8Z" fill="#7961AB"/>
<path d="M27.9986 8H26.9985V9.00002H27.9986V8Z" fill="#7961AB"/>
<path d="M0.999939 9.00003H0V10.0001H0.999939V9.00003Z" fill="#7961AB"/>
<path d="M2.00002 9.00003H1V10.0001H2.00002V9.00003Z" fill="#7961AB"/>
<path d="M2.99994 9.00003H2V10.0001H2.99994V9.00003Z" fill="#7961AB"/>
<path d="M3.99953 9.00003H2.99951V10.0001H3.99953V9.00003Z" fill="#7961AB"/>
<path d="M4.99945 9.00003H3.99951V10.0001H4.99945V9.00003Z" fill="#2D3341"/>
<path d="M5.99945 9.00003H4.99951V10.0001H5.99945V9.00003Z" fill="#7961AB"/>
<path d="M6.99953 9.00003H5.99951V10.0001H6.99953V9.00003Z" fill="#2D3341"/>
<path d="M7.99937 9.00003H6.99951V10.0001H7.99937V9.00003Z" fill="#49655A"/>
<path d="M8.99953 9.00003H7.99951V10.0001H8.99953V9.00003Z" fill="#49655A"/>
<path d="M9.99945 9.00003H8.99951V10.0001H9.99945V9.00003Z" fill="#49655A"/>
<path d="M10.9995 9.00003H9.99951V10.0001H10.9995V9.00003Z" fill="#49655A"/>
<path d="M11.9995 9.00003H10.9995V10.0001H11.9995V9.00003Z" fill="#49655A"/>
<path d="M12.9995 9.00003H11.9995V10.0001H12.9995V9.00003Z" fill="#49655A"/>
<path d="M13.999 9.00003H12.999V10.0001H13.999V9.00003Z" fill="#49655A"/>
<path d="M14.9995 9.00003H13.9995V10.0001H14.9995V9.00003Z" fill="#49655A"/>
<path d="M15.999 9.00003H14.999V10.0001H15.999V9.00003Z" fill="#49655A"/>
<path d="M16.999 9.00003H15.999V10.0001H16.999V9.00003Z" fill="#49655A"/>
<path d="M17.999 9.00003H16.999V10.0001H17.999V9.00003Z" fill="#49655A"/>
<path d="M18.9986 9.00003H17.9985V10.0001H18.9986V9.00003Z" fill="#49655A"/>
<path d="M19.999 9.00003H18.999V10.0001H19.999V9.00003Z" fill="#49655A"/>
<path d="M20.9986 9.00003H19.9985V10.0001H20.9986V9.00003Z" fill="#49655A"/>
<path d="M21.9985 9.00003H20.9985V10.0001H21.9985V9.00003Z" fill="#2D3341"/>
<path d="M22.9986 9.00003H21.9985V10.0001H22.9986V9.00003Z" fill="#7961AB"/>
<path d="M23.9986 9.00003H22.9985V10.0001H23.9986V9.00003Z" fill="#7961AB"/>
<path d="M24.9985 9.00003H23.9985V10.0001H24.9985V9.00003Z" fill="#7961AB"/>
<path d="M25.9986 9.00003H24.9985V10.0001H25.9986V9.00003Z" fill="#7961AB"/>
<path d="M26.9985 9.00003H25.9985V10.0001H26.9985V9.00003Z" fill="#7961AB"/>
<path d="M27.9986 9.00003H26.9985V10.0001H27.9986V9.00003Z" fill="#7961AB"/>
<path d="M0.999939 10H0V11.0001H0.999939V10Z" fill="#7961AB"/>
<path d="M2.00002 10H1V11.0001H2.00002V10Z" fill="#7961AB"/>
<path d="M2.99994 10H2V11.0001H2.99994V10Z" fill="#7961AB"/>
<path d="M3.99953 10H2.99951V11.0001H3.99953V10Z" fill="#7961AB"/>
<path d="M4.99945 10H3.99951V11.0001H4.99945V10Z" fill="#7961AB"/>
<path d="M5.99945 10H4.99951V11.0001H5.99945V10Z" fill="#7961AB"/>
<path d="M6.99994 10H6V11.0001H6.99994V10Z" fill="#2D3341"/>
<path d="M8.00002 10H7V11.0001H8.00002V10Z" fill="#2D3341"/>
<path d="M8.99953 10H7.99951V11.0001H8.99953V10Z" fill="#2D3341"/>
<path d="M9.99945 10H8.99951V11.0001H9.99945V10Z" fill="#2D3341"/>
<path d="M10.9995 10H9.99951V11.0001H10.9995V10Z" fill="#2D3341"/>
<path d="M11.9995 10H10.9995V11.0001H11.9995V10Z" fill="#2D3341"/>
<path d="M12.9995 10H11.9995V11.0001H12.9995V10Z" fill="#2D3341"/>
<path d="M13.999 10H12.999V11.0001H13.999V10Z" fill="#2D3341"/>
<path d="M14.9995 10H13.9995V11.0001H14.9995V10Z" fill="#2D3341"/>
<path d="M15.999 10H14.999V11.0001H15.999V10Z" fill="#2D3341"/>
<path d="M16.999 10H15.999V11.0001H16.999V10Z" fill="#2D3341"/>
<path d="M17.999 10H16.999V11.0001H17.999V10Z" fill="#2D3341"/>
<path d="M18.9986 10H17.9985V11.0001H18.9986V10Z" fill="#2D3341"/>
<path d="M19.999 10H18.999V11.0001H19.999V10Z" fill="#2D3341"/>
<path d="M20.9986 10H19.9985V11.0001H20.9986V10Z" fill="#2D3341"/>
<path d="M21.9985 10H20.9985V11.0001H21.9985V10Z" fill="#2D3341"/>
<path d="M22.9986 10H21.9985V11.0001H22.9986V10Z" fill="#7961AB"/>
<path d="M23.9986 10H22.9985V11.0001H23.9986V10Z" fill="#7057A6"/>
<path d="M24.9985 10H23.9985V11.0001H24.9985V10Z" fill="#7057A6"/>
<path d="M25.9986 10H24.9985V11.0001H25.9986V10Z" fill="#7057A6"/>
<path d="M26.9985 10H25.9985V11.0001H26.9985V10Z" fill="#7057A6"/>
<path d="M27.9986 10H26.9985V11.0001H27.9986V10Z" fill="#7961AB"/>
<path d="M0.999939 11.0001H0V11.9999H0.999939V11.0001Z" fill="#7961AB"/>
<path d="M2.00002 11.0001H1V11.9999H2.00002V11.0001Z" fill="#7961AB"/>
<path d="M2.99994 11.0001H2V11.9999H2.99994V11.0001Z" fill="#7961AB"/>
<path d="M3.99953 11.0001H2.99951V11.9999H3.99953V11.0001Z" fill="#7961AB"/>
<path d="M4.99945 11.0001H3.99951V11.9999H4.99945V11.0001Z" fill="#2D3341"/>
<path d="M5.99945 11.0001H4.99951V11.9999H5.99945V11.0001Z" fill="#7961AB"/>
<path d="M6.99994 11.0001H6V11.9999H6.99994V11.0001Z" fill="#7961AB"/>
<path d="M8.00002 11.0001H7V11.9999H8.00002V11.0001Z" fill="#7961AB"/>
<path d="M8.99953 11.0001H7.99951V11.9999H8.99953V11.0001Z" fill="#2D3341"/>
<path d="M9.99945 11.0001H8.99951V11.9999H9.99945V11.0001Z" fill="#2D3341"/>
<path d="M10.9995 11.0001H9.99951V11.9999H10.9995V11.0001Z" fill="#2D3341"/>
<path d="M11.9995 11.0001H10.9995V11.9999H11.9995V11.0001Z" fill="#2D3341"/>
<path d="M12.9995 11.0001H11.9995V11.9999H12.9995V11.0001Z" fill="#2D3341"/>
<path d="M13.999 11.0001H12.999V11.9999H13.999V11.0001Z" fill="#2D3341"/>
<path d="M14.9995 11.0001H13.9995V11.9999H14.9995V11.0001Z" fill="#2D3341"/>
<path d="M15.999 11.0001H14.999V11.9999H15.999V11.0001Z" fill="#2D3341"/>
<path d="M16.999 11.0001H15.999V11.9999H16.999V11.0001Z" fill="#2D3341"/>
<path d="M17.999 11.0001H16.999V11.9999H17.999V11.0001Z" fill="#2D3341"/>
<path d="M18.9986 11.0001H17.9985V11.9999H18.9986V11.0001Z" fill="#2D3341"/>
<path d="M19.999 11.0001H18.999V11.9999H19.999V11.0001Z" fill="#2D3341"/>
<path d="M20.9986 11.0001H19.9985V11.9999H20.9986V11.0001Z" fill="#7961AB"/>
<path d="M21.9985 11.0001H20.9985V11.9999H21.9985V11.0001Z" fill="#7961AB"/>
<path d="M22.9986 11.0001H21.9985V11.9999H22.9986V11.0001Z" fill="#7961AB"/>
<path d="M23.9986 11.0001H22.9985V11.9999H23.9986V11.0001Z" fill="#7961AB"/>
<path d="M24.9985 11.0001H23.9985V11.9999H24.9985V11.0001Z" fill="#7961AB"/>
<path d="M25.9986 11.0001H24.9985V11.9999H25.9986V11.0001Z" fill="#7961AB"/>
<path d="M26.9985 11.0001H25.9985V11.9999H26.9985V11.0001Z" fill="#7961AB"/>
<path d="M27.9986 11.0001H26.9985V11.9999H27.9986V11.0001Z" fill="#7961AB"/>
<path d="M1.00149 11.9999H0.00146484V13H1.00149V11.9999Z" fill="#684DA0"/>
<path d="M2.00002 11.9999H1V13H2.00002V11.9999Z" fill="#7961AB"/>
<path d="M2.99994 11.9999H2V13H2.99994V11.9999Z" fill="#7961AB"/>
<path d="M3.99953 11.9999H2.99951V13H3.99953V11.9999Z" fill="#7961AB"/>
<path d="M4.99945 11.9999H3.99951V13H4.99945V11.9999Z" fill="#7961AB"/>
<path d="M5.99945 11.9999H4.99951V13H5.99945V11.9999Z" fill="#7961AB"/>
<path d="M6.99953 11.9999H5.99951V13H6.99953V11.9999Z" fill="#7961AB"/>
<path d="M8.00002 11.9999H7V13H8.00002V11.9999Z" fill="#7961AB"/>
<path d="M9.00043 11.9999H8.00049V13H9.00043V11.9999Z" fill="#7057A6"/>
<path d="M9.99994 11.9999H9V13H9.99994V11.9999Z" fill="#7057A6"/>
<path d="M11 11.9999H10V13H11V11.9999Z" fill="#7057A6"/>
<path d="M11.9999 11.9999H11V13H11.9999V11.9999Z" fill="#7057A6"/>
<path d="M13 11.9999H12V13H13V11.9999Z" fill="#7057A6"/>
<path d="M13.9993 11.9999H13V13H13.9993V11.9999Z" fill="#7057A6"/>
<path d="M14.9995 11.9999H13.9995V13H14.9995V11.9999Z" fill="#7057A6"/>
<path d="M15.999 11.9999H14.999V13H15.999V11.9999Z" fill="#7057A6"/>
<path d="M16.9995 11.9999H15.9995V13H16.9995V11.9999Z" fill="#7057A6"/>
<path d="M17.9995 11.9999H16.9995V13H17.9995V11.9999Z" fill="#7057A6"/>
<path d="M18.9995 11.9999H17.9995V13H18.9995V11.9999Z" fill="#7057A6"/>
<path d="M19.9995 11.9999H18.9995V13H19.9995V11.9999Z" fill="#7057A6"/>
<path d="M20.9986 11.9999H19.9985V13H20.9986V11.9999Z" fill="#7961AB"/>
<path d="M21.9985 11.9999H20.9985V13H21.9985V11.9999Z" fill="#7961AB"/>
<path d="M22.9986 11.9999H21.9985V13H22.9986V11.9999Z" fill="#7961AB"/>
<path d="M23.9986 11.9999H22.9985V13H23.9986V11.9999Z" fill="#7961AB"/>
<path d="M24.9985 11.9999H23.9985V13H24.9985V11.9999Z" fill="#7961AB"/>
<path d="M25.9986 11.9999H24.9985V13H25.9986V11.9999Z" fill="#7961AB"/>
<path d="M26.9985 11.9999H25.9985V13H26.9985V11.9999Z" fill="#7961AB"/>
<path d="M27.9999 11.9999H27V13H27.9999V11.9999Z" fill="#684DA0"/>
<path d="M2.0014 13H1.00146V14.0001H2.0014V13Z" fill="#684DA0"/>
<path d="M3.00157 13H2.00146V14.0001H3.00157V13Z" fill="#684DA0"/>
<path d="M4.0014 13H3.00146V14.0001H4.0014V13Z" fill="#684DA0"/>
<path d="M5.00043 13H4.00049V14.0001H5.00043V13Z" fill="#684DA0"/>
<path d="M6.00051 13H5.00049V14.0001H6.00051V13Z" fill="#684DA0"/>
<path d="M6.99994 13H6V14.0001H6.99994V13Z" fill="#7961AB"/>
<path d="M8.00002 13H7V14.0001H8.00002V13Z" fill="#7961AB"/>
<path d="M9.00002 13H8V14.0001H9.00002V13Z" fill="#7961AB"/>
<path d="M9.99986 13H9V14.0001H9.99986V13Z" fill="#7961AB"/>
<path d="M10.9995 13H9.99951V14.0001H10.9995V13Z" fill="#7961AB"/>
<path d="M11.9995 13H10.9995V14.0001H11.9995V13Z" fill="#7961AB"/>
<path d="M12.9995 13H11.9995V14.0001H12.9995V13Z" fill="#7961AB"/>
<path d="M13.999 13H12.999V14.0001H13.999V13Z" fill="#7961AB"/>
<path d="M14.9995 13H13.9995V14.0001H14.9995V13Z" fill="#7961AB"/>
<path d="M15.999 13H14.999V14.0001H15.999V13Z" fill="#7961AB"/>
<path d="M16.999 13H15.999V14.0001H16.999V13Z" fill="#7961AB"/>
<path d="M17.999 13H16.999V14.0001H17.999V13Z" fill="#7961AB"/>
<path d="M18.9986 13H17.9985V14.0001H18.9986V13Z" fill="#7961AB"/>
<path d="M19.999 13H18.999V14.0001H19.999V13Z" fill="#7961AB"/>
<path d="M20.9986 13H19.9985V14.0001H20.9986V13Z" fill="#7961AB"/>
<path d="M21.9985 13H20.9985V14.0001H21.9985V13Z" fill="#7961AB"/>
<path d="M23.0004 13H22.0005V14.0001H23.0004V13Z" fill="#684DA0"/>
<path d="M23.9999 13H23V14.0001H23.9999V13Z" fill="#684DA0"/>
<path d="M25 13H24V14.0001H25V13Z" fill="#684DA0"/>
<path d="M25.9999 13H25V14.0001H25.9999V13Z" fill="#684DA0"/>
<path d="M27 13H26V14.0001H27V13Z" fill="#684DA0"/>
<path d="M6.99994 14H6V14.9999H6.99994V14Z" fill="#684DA0"/>
<path d="M8.00002 14H7V14.9999H8.00002V14Z" fill="#684DA0"/>
<path d="M8.99953 14H7.99951V14.9999H8.99953V14Z" fill="#7961AB"/>
<path d="M9.99945 14H8.99951V14.9999H9.99945V14Z" fill="#7961AB"/>
<path d="M10.9995 14H9.99951V14.9999H10.9995V14Z" fill="#7961AB"/>
<path d="M11.9995 14H10.9995V14.9999H11.9995V14Z" fill="#7961AB"/>
<path d="M12.9995 14H11.9995V14.9999H12.9995V14Z" fill="#7961AB"/>
<path d="M13.999 14H12.999V14.9999H13.999V14Z" fill="#7961AB"/>
<path d="M14.9995 14H13.9995V14.9999H14.9995V14Z" fill="#7961AB"/>
<path d="M15.999 14H14.999V14.9999H15.999V14Z" fill="#7961AB"/>
<path d="M16.999 14H15.999V14.9999H16.999V14Z" fill="#7961AB"/>
<path d="M17.999 14H16.999V14.9999H17.999V14Z" fill="#7961AB"/>
<path d="M19.0004 14H18.0005V14.9999H19.0004V14Z" fill="#7961AB"/>
<path d="M19.999 14H18.999V14.9999H19.999V14Z" fill="#7961AB"/>
<path d="M21.0004 14H20.0005V14.9999H21.0004V14Z" fill="#684DA0"/>
<path d="M22.0018 14H21.002V14.9999H22.0018V14Z" fill="#684DA0"/>
<path d="M8.99953 14.9999H7.99951V16H8.99953V14.9999Z" fill="#684DA0"/>
<path d="M9.99945 14.9999H8.99951V16H9.99945V14.9999Z" fill="#684DA0"/>
<path d="M10.9995 14.9999H9.99951V16H10.9995V14.9999Z" fill="#684DA0"/>
<path d="M11.9995 14.9999H10.9995V16H11.9995V14.9999Z" fill="#684DA0"/>
<path d="M12.9995 14.9999H11.9995V16H12.9995V14.9999Z" fill="#684DA0"/>
<path d="M13.999 14.9999H12.999V16H13.999V14.9999Z" fill="#684DA0"/>
<path d="M14.9995 14.9999H13.9995V16H14.9995V14.9999Z" fill="#684DA0"/>
<path d="M15.999 14.9999H14.999V16H15.999V14.9999Z" fill="#684DA0"/>
<path d="M16.9989 14.9999H16.0005V16H16.9989V14.9999Z" fill="#684DA0"/>
<path d="M18.0006 14.9999H17.0005V16H18.0006V14.9999Z" fill="#684DA0"/>
<path d="M19.002 14.9999H18.002V16H19.002V14.9999Z" fill="#684DA0"/>
<path d="M20.0019 14.9999H19.002V16H20.0019V14.9999Z" fill="#684DA0"/>
</svg>
