<svg width="129" height="100" viewBox="0 0 129 100" fill="none" xmlns="http://www.w3.org/2000/svg">
<path d="M36.3223 1.19336C40.1326 -1.18967 56.8759 18.731 73.7185 45.6766C90.5611 72.6222 101.123 96.4029 97.313 98.7859" stroke="#E25822" stroke-width="0.54" stroke-linecap="round" stroke-linejoin="round"/>
<path d="M14.0435 56.7354C21.7511 50.9764 41.1629 43.9514 64.4843 38.9991C90.4991 33.476 113.125 32.272 120.572 35.5859" stroke="#E25822" stroke-width="0.44" stroke-linecap="round" stroke-linejoin="round"/>
<path d="M10.3322 53.4588L10.6921 56.45C10.8535 57.7656 11.8837 58.7958 13.1869 58.9447L16.1781 59.3047L13.1869 59.6646C11.8713 59.826 10.8411 60.8561 10.6921 62.1593L10.3322 65.1505L9.97232 62.1593C9.81097 60.8437 8.78079 59.8136 7.47757 59.6646L4.48633 59.3047L7.47757 58.9447C8.7932 58.7834 9.82338 57.7532 9.97232 56.45L10.3322 53.4588Z" fill="#E25822"/>
<path d="M123.154 32.8306L123.514 35.8218C123.675 37.1374 124.705 38.1676 126.009 38.3165L129 38.6765L126.009 39.0364C124.693 39.1977 123.663 40.2279 123.514 41.5311L123.154 44.5223L122.794 41.5311C122.633 40.2155 121.602 39.1853 120.299 39.0364L117.308 38.6765L120.299 38.3165C121.615 38.1552 122.645 37.125 122.794 35.8218L123.154 32.8306Z" fill="#E25822"/>
<path d="M83.6852 82.5764L84.0452 85.5676C84.2065 86.8833 85.2366 87.9134 86.5398 88.0623L89.5311 88.4223L86.5398 88.7822C85.2242 88.9436 84.1941 89.9738 84.0452 91.277L83.6852 94.2681L83.3253 91.277C83.1639 89.9613 82.1337 88.9312 80.8305 88.7822L77.8394 88.4223L80.8305 88.0623C82.1462 87.901 83.1763 86.8708 83.3253 85.5676L83.6852 82.5764Z" fill="#E25822"/>
<path d="M14.6891 48.519L14.8007 49.4499C14.8504 49.8594 15.1731 50.1697 15.5703 50.2194L16.5011 50.3311L15.5703 50.4428C15.1607 50.4924 14.8504 50.8151 14.8007 51.2123L14.6891 52.1432L14.5773 51.2123C14.5277 50.8027 14.205 50.4924 13.8078 50.4428L12.877 50.3311L13.8078 50.2194C14.2174 50.1697 14.5277 49.847 14.5773 49.4499L14.6891 48.519Z" fill="#E25822"/>
<path d="M3.17091 63.8099L3.31984 65.051C3.3819 65.5971 3.81634 66.0191 4.36245 66.0936L5.60362 66.2425L4.36245 66.3915C3.81634 66.4535 3.39431 66.8879 3.31984 67.434L3.17091 68.6752L3.02198 67.434C2.95992 66.8879 2.52555 66.4659 1.97944 66.3915L0.738281 66.2425L1.97944 66.0936C2.52555 66.0316 2.94751 65.5971 3.02198 65.051L3.17091 63.8099Z" fill="#E25822"/>
<path d="M114.131 43.6659L114.28 44.9071C114.342 45.4532 114.776 45.8752 115.322 45.9496L116.564 46.0986L115.322 46.2475C114.776 46.3096 114.354 46.744 114.28 47.2901L114.131 48.5313L113.982 47.2901C113.92 46.744 113.486 46.322 112.939 46.2475L111.698 46.0986L112.939 45.9496C113.486 45.8876 113.908 45.4532 113.982 44.9071L114.131 43.6659Z" fill="#E25822"/>
<path d="M111.698 47.7866C101.893 52.4161 86.6144 57.2814 69.1513 60.9925C42.1063 66.7391 18.7352 67.8065 12.2563 63.9961" stroke="#E25822" stroke-width="0.44" stroke-linecap="round" stroke-linejoin="round"/>
<path d="M120.2 42.7847C119.393 43.4425 118.425 44.1127 117.308 44.7953" stroke="#E25822" stroke-width="0.44" stroke-linecap="round" stroke-linejoin="round"/>
<path d="M79.4778 82.5764C73.545 74.9805 66.7434 65.2249 59.917 54.3027C43.0745 27.3571 32.5122 3.57639 36.3225 1.19336" stroke="#E25822" stroke-width="0.54" stroke-linecap="round" stroke-linejoin="round"/>
<path d="M97.313 98.7985C95.8856 99.6921 92.6337 97.4456 88.2524 92.8781" stroke="#E25822" stroke-width="0.54" stroke-linecap="round" stroke-linejoin="round"/>
</svg>
