<svg width="157" height="113" viewBox="0 0 157 113" fill="none" xmlns="http://www.w3.org/2000/svg">
<path d="M10.0713 97.4542C11.4662 87.9789 36.0476 66.0513 69.2367 45.3144C94.5836 29.4769 118.366 18.4366 132.247 15.4086" stroke="#1C2630" stroke-width="0.44" stroke-linecap="round" stroke-linejoin="round"/>
<path d="M139.851 100.176C144.359 92.9634 118.076 68.3991 81.1278 45.3147C44.1961 22.2303 10.5817 9.36977 6.07372 16.5826C4.71282 18.76 6.15875 22.5195 9.86722 27.3507" stroke="#1C2630" stroke-width="0.54" stroke-linecap="round" stroke-linejoin="round"/>
<path d="M144.274 93.1164C148.782 85.9036 122.499 61.3392 85.5506 38.2548C48.619 15.1704 15.0046 2.30982 10.4966 9.52263" stroke="#1C2630" stroke-width="0.44" stroke-linecap="round" stroke-linejoin="round"/>
<path d="M14.9706 94.8517C10.3605 95.4981 7.24737 94.9708 6.0906 93.1166C1.5826 85.9038 27.8652 61.3394 64.8138 38.255C94.6687 19.5936 122.346 7.61757 134.237 7.5155" stroke="#1C2630" stroke-width="0.54" stroke-linecap="round" stroke-linejoin="round"/>
<path d="M19.7338 91.2964L20.3291 96.2807C20.5843 98.4581 22.3025 100.176 24.4969 100.448L29.4813 101.044L24.4969 101.639C22.3195 101.894 20.6013 103.613 20.3291 105.807L19.7338 110.791L19.1384 105.807C18.8833 103.63 17.1651 101.911 14.9706 101.639L9.98633 101.044L14.9706 100.448C17.1481 100.193 18.8663 98.4752 19.1384 96.2807L19.7338 91.2964Z" fill="#1E2535"/>
<path d="M140.14 2.80334L140.736 7.78766C140.991 9.96511 142.709 11.6833 144.903 11.9555L149.888 12.5508L144.903 13.1463C142.726 13.4014 141.008 15.1196 140.736 17.3141L140.14 22.2984L139.545 17.3141C139.29 15.1366 137.571 13.4185 135.377 13.1463L130.393 12.5508L135.377 11.9555C137.554 11.7003 139.273 9.98212 139.545 7.78766L140.14 2.80334Z" fill="#1E2535"/>
<path d="M14.188 27.3506L14.6303 31.059C14.8174 32.6751 16.1103 33.968 17.7264 34.1551L21.4349 34.5974L17.7264 35.0397C16.1103 35.2269 14.8174 36.5197 14.6303 38.1358L14.188 41.8443L13.7457 38.1358C13.5586 36.5197 12.2657 35.2269 10.6496 35.0397L6.94116 34.5974L10.6496 34.1551C12.2657 33.968 13.5586 32.6751 13.7457 31.059L14.188 27.3506Z" fill="#1E2535"/>
<path d="M5.58034 102.949L5.8695 105.365C5.98858 106.419 6.82223 107.253 7.87693 107.372L10.2925 107.661L7.87693 107.95C6.82223 108.069 5.98858 108.903 5.8695 109.958L5.58034 112.373L5.29118 109.958C5.1721 108.903 4.33855 108.069 3.28385 107.95L0.868164 107.661L3.28385 107.372C4.33855 107.253 5.1721 106.419 5.29118 105.365L5.58034 102.949Z" fill="#1E2535"/>
<path d="M153.749 0.744995L153.936 2.27595C154.021 2.95641 154.549 3.48378 155.229 3.56883L156.76 3.75593L155.229 3.94303C154.549 4.02809 154.021 4.55546 153.936 5.23591L153.749 6.76697L153.562 5.23591C153.477 4.55546 152.95 4.02809 152.269 3.94303L150.738 3.75593L152.269 3.56883C152.95 3.48378 153.477 2.95641 153.562 2.27595L153.749 0.744995Z" fill="#1E2535"/>
<path d="M135.377 21.1586C126.446 32.301 106.253 48.6829 81.1447 64.3843C59.2511 78.0785 38.5144 88.1663 24.3269 92.6062" stroke="#1C2630" stroke-width="0.54" stroke-linecap="round" stroke-linejoin="round"/>
<path d="M144.274 16.5824C148.782 23.7952 122.499 48.3596 85.5507 71.444C64.933 84.3216 45.3699 94.018 31.3015 98.8322" stroke="#1C2630" stroke-width="0.44" stroke-linecap="round" stroke-linejoin="round"/>
<path d="M10.5137 9.50562C6.00569 16.7184 32.2882 41.2828 69.2368 64.3672C106.168 87.4516 139.783 100.312 144.291 93.0994" stroke="#1C2630" stroke-width="0.44" stroke-linecap="round" stroke-linejoin="round"/>
<path d="M22.8127 40.7046C33.3258 50.0608 47.9555 60.9141 64.8138 71.4441C101.745 94.5285 135.36 107.389 139.868 100.176" stroke="#1C2630" stroke-width="0.54" stroke-linecap="round" stroke-linejoin="round"/>
</svg>
