<svg width="165" height="111" viewBox="0 0 165 111" fill="none" xmlns="http://www.w3.org/2000/svg">
<path d="M1.89461 52.923C0.119707 44.5775 33.331 30.4466 76.0824 21.3672C94.9066 17.3737 112.451 15.0185 126.326 14.3529" stroke="#1C2630" stroke-width="0.44" stroke-linecap="round" stroke-linejoin="round"/>
<path d="M5.88778 71.7473C4.11287 63.4018 37.3242 49.2709 80.0756 40.1915C122.827 31.1122 158.905 30.5148 160.68 38.8774" stroke="#1C2630" stroke-width="0.54" stroke-linecap="round" stroke-linejoin="round"/>
<path d="M19.3021 95.5892C13.7555 94.6505 10.4105 92.9951 9.89852 90.5887C8.12361 82.2433 41.3349 68.1123 84.0863 59.033C126.838 49.9536 162.916 49.3563 164.691 57.7188" stroke="#1C2630" stroke-width="0.44" stroke-linecap="round" stroke-linejoin="round"/>
<path d="M35.5837 83.8303L36.3347 90.1108C36.6589 92.8584 38.8263 95.0259 41.574 95.3502L47.8545 96.1011L41.574 96.852C38.8263 97.1762 36.6589 99.3437 36.3347 102.091L35.5837 108.372L34.8328 102.091C34.5086 99.3437 32.3411 97.1762 29.5934 96.852L23.313 96.1011L29.5934 95.3502C32.3411 95.0259 34.5086 92.8584 34.8328 90.1108L35.5837 83.8303Z" fill="#1E2535"/>
<path d="M138.528 5.95618L139.023 10.0692C139.245 11.8782 140.661 13.2947 142.453 13.4995L146.566 13.9944L142.453 14.4894C140.644 14.7112 139.228 16.1277 139.023 17.9197L138.528 22.0327L138.033 17.9197C137.811 16.1107 136.395 14.6942 134.603 14.4894L130.49 13.9944L134.603 13.4995C136.412 13.2776 137.828 11.8612 138.033 10.0692L138.528 5.95618Z" fill="#1E2535"/>
<path d="M148.273 0L148.478 1.70664C148.563 2.45756 149.161 3.03787 149.912 3.14027L151.618 3.34506L149.912 3.54984C149.161 3.63518 148.58 4.23249 148.478 4.98342L148.273 6.69006L148.068 4.98342C147.983 4.23249 147.386 3.65224 146.635 3.54984L144.928 3.34506L146.635 3.14027C147.386 3.05493 147.966 2.45756 148.068 1.70664L148.273 0Z" fill="#1E2535"/>
<path d="M18.7049 104.31L18.9097 106.017C18.995 106.768 19.5924 107.348 20.3433 107.45L22.05 107.655L20.3433 107.86C19.5924 107.945 19.0121 108.543 18.9097 109.293L18.7049 111L18.5001 109.293C18.4148 108.543 17.8174 107.962 17.0665 107.86L15.3599 107.655L17.0665 107.45C17.8174 107.365 18.3977 106.768 18.5001 106.017L18.7049 104.31Z" fill="#1E2535"/>
<path d="M6.91188 49.868L7.33854 53.4008C7.52627 54.9538 8.73806 56.1656 10.2911 56.3533L13.8239 56.78L10.2911 57.2066C8.73806 57.3944 7.52627 58.606 7.33854 60.1591L6.91188 63.6919L6.48522 60.1591C6.29749 58.606 5.0858 57.3944 3.53276 57.2066L0 56.78L3.53276 56.3533C5.0858 56.1656 6.29749 54.9538 6.48522 53.4008L6.91188 49.868Z" fill="#1E2535"/>
<path d="M156.755 59.8179L157.182 63.3506C157.37 64.9037 158.581 66.1154 160.134 66.3031L163.667 66.7298L160.134 67.1564C158.581 67.3441 157.37 68.5559 157.182 70.1089L156.755 73.6417L156.329 70.1089C156.141 68.5559 154.929 67.3441 153.376 67.1564L149.843 66.7298L153.376 66.3031C154.929 66.1154 156.141 64.9037 156.329 63.3506L156.755 59.8179Z" fill="#1E2535"/>
<path d="M148.836 15.3256C153.444 16.2983 156.226 17.8685 156.687 20.0359C158.462 28.3814 125.251 42.5124 82.4992 51.5917C54.8345 57.4626 29.9517 59.7836 15.3599 58.4354" stroke="#1C2630" stroke-width="0.44" stroke-linecap="round" stroke-linejoin="round"/>
<path d="M160.68 38.8773C162.455 47.2228 129.244 61.3538 86.4924 70.4332C43.741 79.5125 7.6626 80.1098 5.8877 71.7473" stroke="#1C2630" stroke-width="0.54" stroke-linecap="round" stroke-linejoin="round"/>
<path d="M151.618 69.8188C138.323 76.5601 116.12 83.8133 90.5033 89.2575C76.2187 92.2953 62.685 94.3775 50.9263 95.5038" stroke="#1C2630" stroke-width="0.44" stroke-linecap="round" stroke-linejoin="round"/>
<path d="M164.691 57.7017C165.067 59.4766 163.872 61.5074 161.346 63.6919" stroke="#1C2630" stroke-width="0.44" stroke-linecap="round" stroke-linejoin="round"/>
</svg>
