<svg width="120" height="81" viewBox="0 0 120 81" fill="none" xmlns="http://www.w3.org/2000/svg">
<path d="M1.36842 38.2246C0.0864576 32.1969 24.0739 21.9906 54.9519 15.4329C68.5481 12.5485 81.2197 10.8474 91.2412 10.3666" stroke="#E25822" stroke-width="0.44" stroke-linecap="round" stroke-linejoin="round"/>
<path d="M4.25269 51.8208C2.97073 45.7931 26.9582 35.5868 57.8362 29.0291C88.7142 22.4714 114.772 22.0399 116.054 28.0799" stroke="#E25822" stroke-width="0.54" stroke-linecap="round" stroke-linejoin="round"/>
<path d="M13.9416 69.041C9.93548 68.363 7.51946 67.1674 7.14967 65.4293C5.86771 59.4017 29.8552 49.1953 60.7332 42.6376C91.6111 36.0799 117.669 35.6484 118.951 41.6884" stroke="#E25822" stroke-width="0.44" stroke-linecap="round" stroke-linejoin="round"/>
<path d="M25.7007 60.548L26.243 65.0841C26.4772 67.0687 28.0427 68.6342 30.0272 68.8684L34.5635 69.4108L30.0272 69.9531C28.0427 70.1873 26.4772 71.7528 26.243 73.7373L25.7007 78.2735L25.1583 73.7373C24.9241 71.7528 23.3586 70.1873 21.374 69.9531L16.8379 69.4108L21.374 68.8684C23.3586 68.6342 24.9241 67.0687 25.1583 65.0841L25.7007 60.548Z" fill="#E25822"/>
<path d="M100.054 4.30194L100.412 7.27264C100.572 8.57925 101.595 9.60233 102.889 9.75025L105.86 10.1077L102.889 10.4652C101.583 10.6255 100.56 11.6485 100.412 12.9428L100.054 15.9135L99.6968 12.9428C99.5366 11.6362 98.5135 10.6131 97.2192 10.4652L94.2485 10.1077L97.2192 9.75025C98.5258 9.59 99.5489 8.56693 99.6968 7.27264L100.054 4.30194Z" fill="#E25822"/>
<path d="M107.093 0L107.241 1.23265C107.302 1.77502 107.734 2.19416 108.276 2.26812L109.509 2.41603L108.276 2.56394C107.734 2.62557 107.315 3.057 107.241 3.59936L107.093 4.83202L106.945 3.59936C106.883 3.057 106.452 2.6379 105.909 2.56394L104.677 2.41603L105.909 2.26812C106.452 2.20648 106.871 1.77502 106.945 1.23265L107.093 0Z" fill="#E25822"/>
<path d="M13.5098 75.34L13.6577 76.5726C13.7193 77.115 14.1508 77.5341 14.6932 77.608L15.9258 77.756L14.6932 77.9039C14.1508 77.9655 13.7316 78.3969 13.6577 78.9393L13.5098 80.1719L13.3619 78.9393C13.3002 78.3969 12.8688 77.9778 12.3264 77.9039L11.0938 77.756L12.3264 77.608C12.8688 77.5464 13.2879 77.115 13.3619 76.5726L13.5098 75.34Z" fill="#E25822"/>
<path d="M4.99223 36.0181L5.3004 38.5697C5.43599 39.6914 6.31122 40.5666 7.43294 40.7022L9.98454 41.0104L7.43294 41.3186C6.31122 41.4542 5.43599 42.3293 5.3004 43.451L4.99223 46.0026L4.68407 43.451C4.54848 42.3293 3.67332 41.4542 2.5516 41.3186L0 41.0104L2.5516 40.7022C3.67332 40.5666 4.54848 39.6914 4.68407 38.5697L4.99223 36.0181Z" fill="#E25822"/>
<path d="M113.219 43.2046L113.528 45.7562C113.663 46.8779 114.538 47.7531 115.66 47.8887L118.212 48.1968L115.66 48.505C114.538 48.6406 113.663 49.5158 113.528 50.6375L113.219 53.1891L112.911 50.6375C112.776 49.5158 111.9 48.6406 110.779 48.505L108.227 48.1968L110.779 47.8887C111.9 47.7531 112.776 46.8779 112.911 45.7562L113.219 43.2046Z" fill="#E25822"/>
<path d="M107.5 11.0692C110.828 11.7718 112.837 12.9059 113.17 14.4713C114.452 20.499 90.4643 30.7054 59.5864 37.2631C39.6051 41.5034 21.6329 43.1798 11.0938 42.2061" stroke="#E25822" stroke-width="0.44" stroke-linecap="round" stroke-linejoin="round"/>
<path d="M116.054 28.0798C117.336 34.1075 93.3486 44.3139 62.4706 50.8716C31.5927 57.4293 5.5344 57.8608 4.25244 51.8208" stroke="#E25822" stroke-width="0.54" stroke-linecap="round" stroke-linejoin="round"/>
<path d="M109.509 50.4279C99.9069 55.2969 83.8701 60.5357 65.368 64.4679C55.0506 66.662 45.2757 68.1658 36.7827 68.9794" stroke="#E25822" stroke-width="0.44" stroke-linecap="round" stroke-linejoin="round"/>
<path d="M118.951 41.6761C119.222 42.958 118.359 44.4249 116.535 46.0027" stroke="#E25822" stroke-width="0.44" stroke-linecap="round" stroke-linejoin="round"/>
</svg>
