<svg width="40" height="38" viewBox="0 0 40 38" fill="none" xmlns="http://www.w3.org/2000/svg">
<path d="M39.8199 34.2161H37.0181V37.0179H39.8199V34.2161Z" fill="#966451"/>
<path d="M39.8199 31.4144H37.0181V34.2162H39.8199V31.4144Z" fill="#966451"/>
<path d="M39.8199 28.6173H37.0181V31.4143H39.8199V28.6173Z" fill="#966451"/>
<path d="M39.8199 25.8155H37.0181V28.6173H39.8199V25.8155Z" fill="#966451"/>
<path d="M39.8199 23.0185H37.0181V25.8155H39.8199V23.0185Z" fill="#966451"/>
<path d="M39.8199 20.2164H37.0181V23.0182H39.8199V20.2164Z" fill="#966451"/>
<path d="M39.8199 17.4147H37.0181V20.2165H39.8199V17.4147Z" fill="#966451"/>
<path d="M39.8199 14.6176H37.0181V17.4146H39.8199V14.6176Z" fill="#966451"/>
<path d="M39.8199 11.8157H37.0181V14.6175H39.8199V11.8157Z" fill="#966451"/>
<path d="M39.8199 9.0188H37.0181V11.8158H39.8199V9.0188Z" fill="#966451"/>
<path d="M39.8199 6.21692H37.0181V9.01871H39.8199V6.21692Z" fill="#966451"/>
<path d="M39.8199 3.41479H37.0181V6.21659H39.8199V3.41479Z" fill="#966451"/>
<path d="M39.8199 0.618164H37.0181V3.41519H39.8199V0.618164Z" fill="#966451"/>
<path d="M37.0182 34.2161H34.2212V37.0179H37.0182V34.2161Z" fill="#966451"/>
<path d="M37.0182 31.4144H34.2212V34.2162H37.0182V31.4144Z" fill="#EAC18D"/>
<path d="M37.0182 28.6173H34.2212V31.4143H37.0182V28.6173Z" fill="#EAC18D"/>
<path d="M37.0182 25.8155H34.2212V28.6173H37.0182V25.8155Z" fill="#EAC18D"/>
<path d="M37.0182 23.0185H34.2212V25.8155H37.0182V23.0185Z" fill="#EAC18D"/>
<path d="M37.0182 20.2164H34.2212V23.0182H37.0182V20.2164Z" fill="#EAC18D"/>
<path d="M37.0182 17.4147H34.2212V20.2165H37.0182V17.4147Z" fill="#EAC18D"/>
<path d="M37.0182 14.6176H34.2212V17.4146H37.0182V14.6176Z" fill="#EAC18D"/>
<path d="M37.0182 11.8157H34.2212V14.6175H37.0182V11.8157Z" fill="#EAC18D"/>
<path d="M37.0182 9.0188H34.2212V11.8158H37.0182V9.0188Z" fill="#CB5755"/>
<path d="M37.0182 6.21692H34.2212V9.01871H37.0182V6.21692Z" fill="#CB5755"/>
<path d="M37.0182 3.41479H34.2212V6.21659H37.0182V3.41479Z" fill="#D99D8F"/>
<path d="M37.0182 0.618164H34.2212V3.41519H37.0182V0.618164Z" fill="#966451"/>
<path d="M34.2212 34.2161H31.4194V37.0179H34.2212V34.2161Z" fill="#966451"/>
<path d="M34.2212 31.4144H31.4194V34.2162H34.2212V31.4144Z" fill="#EAC18D"/>
<path d="M34.2212 28.6173H31.4194V31.4143H34.2212V28.6173Z" fill="#F3D8C5"/>
<path d="M34.2212 25.8155H31.4194V28.6173H34.2212V25.8155Z" fill="#F3D8C5"/>
<path d="M34.2212 23.0185H31.4194V25.8155H34.2212V23.0185Z" fill="#F3D8C5"/>
<path d="M34.2212 20.2164H31.4194V23.0182H34.2212V20.2164Z" fill="#F3D8C5"/>
<path d="M34.2212 17.4147H31.4194V20.2165H34.2212V17.4147Z" fill="#F3D8C5"/>
<path d="M34.2212 14.6176H31.4194V17.4146H34.2212V14.6176Z" fill="#F3D8C5"/>
<path d="M34.2212 11.8157H31.4194V14.6175H34.2212V11.8157Z" fill="#EAC18D"/>
<path d="M34.2212 9.0188H31.4194V11.8158H34.2212V9.0188Z" fill="#CB5755"/>
<path d="M34.2212 6.21692H31.4194V9.01871H34.2212V6.21692Z" fill="#D99D8F"/>
<path d="M34.2212 3.41479H31.4194V6.21659H34.2212V3.41479Z" fill="#D99D8F"/>
<path d="M34.2212 0.618164H31.4194V3.41519H34.2212V0.618164Z" fill="#D99D8F"/>
<path d="M31.4195 34.2161H28.6177V37.0179H31.4195V34.2161Z" fill="#966451"/>
<path d="M31.4195 31.4144H28.6177V34.2162H31.4195V31.4144Z" fill="#EAC18D"/>
<path d="M31.4195 28.6173H28.6177V31.4143H31.4195V28.6173Z" fill="#F3D8C5"/>
<path d="M31.4195 25.8155H28.6177V28.6173H31.4195V25.8155Z" fill="#535D80"/>
<path d="M31.4195 23.0185H28.6177V25.8155H31.4195V23.0185Z" fill="#F3D8C5"/>
<path d="M31.4195 20.2164H28.6177V23.0182H31.4195V20.2164Z" fill="#F3D8C5"/>
<path d="M31.4195 17.4147H28.6177V20.2165H31.4195V17.4147Z" fill="#535D80"/>
<path d="M31.4195 14.6176H28.6177V17.4146H31.4195V14.6176Z" fill="#F3D8C5"/>
<path d="M31.4195 11.8157H28.6177V14.6175H31.4195V11.8157Z" fill="#EAC18D"/>
<path d="M31.4195 9.0188H28.6177V11.8158H31.4195V9.0188Z" fill="#CB5755"/>
<path d="M31.4195 6.21692H28.6177V9.01871H31.4195V6.21692Z" fill="#D99D8F"/>
<path d="M31.4195 3.41479H28.6177V6.21659H31.4195V3.41479Z" fill="#D99D8F"/>
<path d="M31.4195 0.618164H28.6177V3.41519H31.4195V0.618164Z" fill="#D99D8F"/>
<path d="M28.6178 34.2161H25.8208V37.0179H28.6178V34.2161Z" fill="#966451"/>
<path d="M28.6178 31.4144H25.8208V34.2162H28.6178V31.4144Z" fill="#EAC18D"/>
<path d="M28.6178 28.6173H25.8208V31.4143H28.6178V28.6173Z" fill="#F3D8C5"/>
<path d="M28.6178 25.8155H25.8208V28.6173H28.6178V25.8155Z" fill="#535D80"/>
<path d="M28.6178 23.0185H25.8208V25.8155H28.6178V23.0185Z" fill="#F3D8C5"/>
<path d="M28.6178 20.2164H25.8208V23.0182H28.6178V20.2164Z" fill="#F3D8C5"/>
<path d="M28.6178 17.4147H25.8208V20.2165H28.6178V17.4147Z" fill="#535D80"/>
<path d="M28.6178 14.6176H25.8208V17.4146H28.6178V14.6176Z" fill="#F3D8C5"/>
<path d="M28.6178 11.8157H25.8208V14.6175H28.6178V11.8157Z" fill="#EAC18D"/>
<path d="M28.6178 9.0188H25.8208V11.8158H28.6178V9.0188Z" fill="#CB5755"/>
<path d="M28.6178 6.21692H25.8208V9.01871H28.6178V6.21692Z" fill="#D99D8F"/>
<path d="M28.6178 3.41479H25.8208V6.21659H28.6178V3.41479Z" fill="#D99D8F"/>
<path d="M28.6178 0.618164H25.8208V3.41519H28.6178V0.618164Z" fill="#D99D8F"/>
<path d="M25.8208 34.2161H23.019V37.0179H25.8208V34.2161Z" fill="#966451"/>
<path d="M25.8208 31.4144H23.019V34.2162H25.8208V31.4144Z" fill="#EAC18D"/>
<path d="M25.8208 28.6173H23.019V31.4143H25.8208V28.6173Z" fill="#F3D8C5"/>
<path d="M25.8208 25.8155H23.019V28.6173H25.8208V25.8155Z" fill="#535D80"/>
<path d="M25.8208 23.0185H23.019V25.8155H25.8208V23.0185Z" fill="#F3D8C5"/>
<path d="M25.8208 20.2164H23.019V23.0182H25.8208V20.2164Z" fill="#F3D8C5"/>
<path d="M25.8208 17.4147H23.019V20.2165H25.8208V17.4147Z" fill="#535D80"/>
<path d="M25.8208 14.6176H23.019V17.4146H25.8208V14.6176Z" fill="#F3D8C5"/>
<path d="M25.8208 11.8157H23.019V14.6175H25.8208V11.8157Z" fill="#EAC18D"/>
<path d="M25.8208 9.0188H23.019V11.8158H25.8208V9.0188Z" fill="#CB5755"/>
<path d="M25.8208 6.21692H23.019V9.01871H25.8208V6.21692Z" fill="#D99D8F"/>
<path d="M25.8208 3.41479H23.019V6.21659H25.8208V3.41479Z" fill="#D99D8F"/>
<path d="M25.8208 0.618164H23.019V3.41519H25.8208V0.618164Z" fill="#D99D8F"/>
<path d="M23.0192 34.2161H20.2222V37.0179H23.0192V34.2161Z" fill="#966451"/>
<path d="M23.0192 31.4144H20.2222V34.2162H23.0192V31.4144Z" fill="#EAC18D"/>
<path d="M23.0192 28.6173H20.2222V31.4143H23.0192V28.6173Z" fill="#F3D8C5"/>
<path d="M23.0192 25.8155H20.2222V28.6173H23.0192V25.8155Z" fill="#535D80"/>
<path d="M23.0192 23.0185H20.2222V25.8155H23.0192V23.0185Z" fill="#F3D8C5"/>
<path d="M23.0192 20.2164H20.2222V23.0182H23.0192V20.2164Z" fill="#F3D8C5"/>
<path d="M23.0192 17.4147H20.2222V20.2165H23.0192V17.4147Z" fill="#535D80"/>
<path d="M23.0192 14.6176H20.2222V17.4146H23.0192V14.6176Z" fill="#F3D8C5"/>
<path d="M23.0192 11.8157H20.2222V14.6175H23.0192V11.8157Z" fill="#EAC18D"/>
<path d="M23.0192 9.0188H20.2222V11.8158H23.0192V9.0188Z" fill="#CB5755"/>
<path d="M23.0192 6.21692H20.2222V9.01871H23.0192V6.21692Z" fill="#D99D8F"/>
<path d="M23.0192 3.41479H20.2222V6.21659H23.0192V3.41479Z" fill="#D99D8F"/>
<path d="M23.0192 0.618164H20.2222V3.41519H23.0192V0.618164Z" fill="#D99D8F"/>
<path d="M20.2227 34.2161H17.4209V37.0179H20.2227V34.2161Z" fill="#966451"/>
<path d="M20.2227 31.4144H17.4209V34.2162H20.2227V31.4144Z" fill="#EAC18D"/>
<path d="M20.2227 28.6173H17.4209V31.4143H20.2227V28.6173Z" fill="#F3D8C5"/>
<path d="M20.2227 25.8155H17.4209V28.6173H20.2227V25.8155Z" fill="#535D80"/>
<path d="M20.2227 23.0185H17.4209V25.8155H20.2227V23.0185Z" fill="#F3D8C5"/>
<path d="M20.2227 20.2164H17.4209V23.0182H20.2227V20.2164Z" fill="#F3D8C5"/>
<path d="M20.2227 17.4147H17.4209V20.2165H20.2227V17.4147Z" fill="#535D80"/>
<path d="M20.2227 14.6176H17.4209V17.4146H20.2227V14.6176Z" fill="#F3D8C5"/>
<path d="M20.2227 11.8157H17.4209V14.6175H20.2227V11.8157Z" fill="#EAC18D"/>
<path d="M20.2227 9.0188H17.4209V11.8158H20.2227V9.0188Z" fill="#CB5755"/>
<path d="M20.2227 6.21692H17.4209V9.01871H20.2227V6.21692Z" fill="#D99D8F"/>
<path d="M20.2227 3.41479H17.4209V6.21659H20.2227V3.41479Z" fill="#D99D8F"/>
<path d="M20.2227 0.618164H17.4209V3.41519H20.2227V0.618164Z" fill="#D99D8F"/>
<path d="M17.4209 34.2161H14.6191V37.0179H17.4209V34.2161Z" fill="#966451"/>
<path d="M17.4209 31.4144H14.6191V34.2162H17.4209V31.4144Z" fill="#EAC18D"/>
<path d="M17.4209 28.6173H14.6191V31.4143H17.4209V28.6173Z" fill="#F3D8C5"/>
<path d="M17.4209 25.8155H14.6191V28.6173H17.4209V25.8155Z" fill="#535D80"/>
<path d="M17.4209 23.0185H14.6191V25.8155H17.4209V23.0185Z" fill="#F3D8C5"/>
<path d="M17.4209 20.2164H14.6191V23.0182H17.4209V20.2164Z" fill="#F3D8C5"/>
<path d="M17.4209 17.4147H14.6191V20.2165H17.4209V17.4147Z" fill="#535D80"/>
<path d="M17.4209 14.6176H14.6191V17.4146H17.4209V14.6176Z" fill="#F3D8C5"/>
<path d="M17.4209 11.8157H14.6191V14.6175H17.4209V11.8157Z" fill="#EAC18D"/>
<path d="M17.4209 9.0188H14.6191V11.8158H17.4209V9.0188Z" fill="#CB5755"/>
<path d="M17.4209 6.21692H14.6191V9.01871H17.4209V6.21692Z" fill="#D99D8F"/>
<path d="M17.4209 3.41479H14.6191V6.21659H17.4209V3.41479Z" fill="#D99D8F"/>
<path d="M17.4209 0.618164H14.6191V3.41519H17.4209V0.618164Z" fill="#D99D8F"/>
<path d="M14.6173 34.2161H11.8203V37.0179H14.6173V34.2161Z" fill="#966451"/>
<path d="M14.6173 31.4144H11.8203V34.2162H14.6173V31.4144Z" fill="#EAC18D"/>
<path d="M14.6173 28.6173H11.8203V31.4143H14.6173V28.6173Z" fill="#F3D8C5"/>
<path d="M14.6173 25.8155H11.8203V28.6173H14.6173V25.8155Z" fill="#535D80"/>
<path d="M14.6173 23.0185H11.8203V25.8155H14.6173V23.0185Z" fill="#F3D8C5"/>
<path d="M14.6173 20.2164H11.8203V23.0182H14.6173V20.2164Z" fill="#F3D8C5"/>
<path d="M14.6173 17.4147H11.8203V20.2165H14.6173V17.4147Z" fill="#535D80"/>
<path d="M14.6173 14.6176H11.8203V17.4146H14.6173V14.6176Z" fill="#F3D8C5"/>
<path d="M14.6173 11.8157H11.8203V14.6175H14.6173V11.8157Z" fill="#EAC18D"/>
<path d="M14.6173 9.0188H11.8203V11.8158H14.6173V9.0188Z" fill="#CB5755"/>
<path d="M14.6173 6.21692H11.8203V9.01871H14.6173V6.21692Z" fill="#D99D8F"/>
<path d="M14.6173 3.41479H11.8203V6.21659H14.6173V3.41479Z" fill="#D99D8F"/>
<path d="M14.6173 0.618164H11.8203V3.41519H14.6173V0.618164Z" fill="#D99D8F"/>
<path d="M11.8203 34.2161H9.01855V37.0179H11.8203V34.2161Z" fill="#966451"/>
<path d="M11.8203 31.4144H9.01855V34.2162H11.8203V31.4144Z" fill="#EAC18D"/>
<path d="M11.8203 28.6173H9.01855V31.4143H11.8203V28.6173Z" fill="#F3D8C5"/>
<path d="M11.8203 25.8155H9.01855V28.6173H11.8203V25.8155Z" fill="#535D80"/>
<path d="M11.8203 23.0185H9.01855V25.8155H11.8203V23.0185Z" fill="#F3D8C5"/>
<path d="M11.8203 20.2164H9.01855V23.0182H11.8203V20.2164Z" fill="#F3D8C5"/>
<path d="M11.8203 17.4147H9.01855V20.2165H11.8203V17.4147Z" fill="#535D80"/>
<path d="M11.8203 14.6176H9.01855V17.4146H11.8203V14.6176Z" fill="#F3D8C5"/>
<path d="M11.8203 11.8157H9.01855V14.6175H11.8203V11.8157Z" fill="#EAC18D"/>
<path d="M11.8203 9.0188H9.01855V11.8158H11.8203V9.0188Z" fill="#CB5755"/>
<path d="M11.8203 6.21692H9.01855V9.01871H11.8203V6.21692Z" fill="white"/>
<path d="M11.8203 3.41479H9.01855V6.21659H11.8203V3.41479Z" fill="white"/>
<path d="M11.8203 0.618164H9.01855V3.41519H11.8203V0.618164Z" fill="#D99D8F"/>
<path d="M9.01871 34.2161H6.22168V37.0179H9.01871V34.2161Z" fill="#966451"/>
<path d="M9.01871 31.4144H6.22168V34.2162H9.01871V31.4144Z" fill="#EAC18D"/>
<path d="M9.01871 28.6173H6.22168V31.4143H9.01871V28.6173Z" fill="#F3D8C5"/>
<path d="M9.01871 25.8155H6.22168V28.6173H9.01871V25.8155Z" fill="white"/>
<path d="M9.01871 23.0185H6.22168V25.8155H9.01871V23.0185Z" fill="white"/>
<path d="M9.01871 20.2164H6.22168V23.0182H9.01871V20.2164Z" fill="white"/>
<path d="M9.01871 17.4147H6.22168V20.2165H9.01871V17.4147Z" fill="white"/>
<path d="M9.01871 14.6176H6.22168V17.4146H9.01871V14.6176Z" fill="white"/>
<path d="M9.01871 11.8157H6.22168V14.6175H9.01871V11.8157Z" fill="white"/>
<path d="M9.01871 9.0188H6.22168V11.8158H9.01871V9.0188Z" fill="white"/>
<path d="M9.01871 6.21692H6.22168V9.01871H9.01871V6.21692Z" fill="white"/>
<path d="M9.01871 3.41479H6.22168V6.21659H9.01871V3.41479Z" fill="white"/>
<path d="M9.01871 0.618164H6.22168V3.41519H9.01871V0.618164Z" fill="#D99D8F"/>
<path d="M6.22172 34.2161H3.41992V37.0179H6.22172V34.2161Z" fill="#966451"/>
<path d="M6.22172 31.4144H3.41992V34.2162H6.22172V31.4144Z" fill="#EAC18D"/>
<path d="M6.22172 28.6173H3.41992V31.4143H6.22172V28.6173Z" fill="#F3D8C5"/>
<path d="M6.22172 25.8155H3.41992V28.6173H6.22172V25.8155Z" fill="#F3D8C5"/>
<path d="M6.22172 23.0185H3.41992V25.8155H6.22172V23.0185Z" fill="#F3D8C5"/>
<path d="M6.22172 20.2164H3.41992V23.0182H6.22172V20.2164Z" fill="#F3D8C5"/>
<path d="M6.22172 17.4147H3.41992V20.2165H6.22172V17.4147Z" fill="#F3D8C5"/>
<path d="M6.22172 14.6176H3.41992V17.4146H6.22172V14.6176Z" fill="#F3D8C5"/>
<path d="M6.22172 11.8157H3.41992V14.6175H6.22172V11.8157Z" fill="#EAC18D"/>
<path d="M6.22172 9.0188H3.41992V11.8158H6.22172V9.0188Z" fill="#CB5755"/>
<path d="M6.22172 6.21692H3.41992V9.01871H6.22172V6.21692Z" fill="#CB5755"/>
<path d="M6.22172 3.41479H3.41992V6.21659H6.22172V3.41479Z" fill="#D99D8F"/>
<path d="M6.22172 0.618164H3.41992V3.41519H6.22172V0.618164Z" fill="#966451"/>
<path d="M3.41996 34.2161H0.618164V37.0179H3.41996V34.2161Z" fill="#966451"/>
<path d="M3.41996 31.4144H0.618164V34.2162H3.41996V31.4144Z" fill="#966451"/>
<path d="M3.41996 28.6173H0.618164V31.4143H3.41996V28.6173Z" fill="#966451"/>
<path d="M3.41996 25.8155H0.618164V28.6173H3.41996V25.8155Z" fill="#966451"/>
<path d="M3.41996 23.0185H0.618164V25.8155H3.41996V23.0185Z" fill="#966451"/>
<path d="M3.41996 20.2164H0.618164V23.0182H3.41996V20.2164Z" fill="#966451"/>
<path d="M3.41996 17.4147H0.618164V20.2165H3.41996V17.4147Z" fill="#966451"/>
<path d="M3.41996 14.6176H0.618164V17.4146H3.41996V14.6176Z" fill="#966451"/>
<path d="M3.41996 11.8157H0.618164V14.6175H3.41996V11.8157Z" fill="#966451"/>
<path d="M3.41996 9.0188H0.618164V11.8158H3.41996V9.0188Z" fill="#966451"/>
<path d="M3.41996 6.21692H0.618164V9.01871H3.41996V6.21692Z" fill="#966451"/>
<path d="M3.41996 3.41479H0.618164V6.21659H3.41996V3.41479Z" fill="#966451"/>
<path d="M3.41996 0.618164H0.618164V3.41519H3.41996V0.618164Z" fill="#966451"/>
</svg>
