<svg width="13" height="16" viewBox="0 0 13 16" fill="none" xmlns="http://www.w3.org/2000/svg">
<path d="M12.3077 8.61469H11.0762V9.84622H12.3077V8.61469Z" fill="#CB5755"/>
<path d="M12.3077 7.38531H11.0762V8.61474H12.3077V7.38531Z" fill="#CB5755"/>
<path d="M11.0761 8.61469H9.84668V9.84622H11.0761V8.61469Z" fill="#D99D8F"/>
<path d="M11.0761 7.38531H9.84668V8.61474H11.0761V7.38531Z" fill="#CB5755"/>
<path d="M11.0761 6.15375H9.84668V7.38528H11.0761V6.15375Z" fill="#CB5755"/>
<path d="M9.84579 8.61469H8.61426V9.84622H9.84579V8.61469Z" fill="#D99D8F"/>
<path d="M9.84579 7.38531H8.61426V8.61474H9.84579V7.38531Z" fill="#D99D8F"/>
<path d="M9.84579 6.15375H8.61426V7.38528H9.84579V6.15375Z" fill="#CB5755"/>
<path d="M9.84579 4.92432H8.61426V6.15374H9.84579V4.92432Z" fill="#CB5755"/>
<path d="M9.84579 1.23151H8.61426V2.46094H9.84579V1.23151Z" fill="#CB5755"/>
<path d="M9.84579 0H8.61426V1.23154H9.84579V0Z" fill="#CB5755"/>
<path d="M8.61484 8.61469H7.3833V9.84622H8.61484V8.61469Z" fill="#D99D8F"/>
<path d="M8.61484 7.38531H7.3833V8.61474H8.61484V7.38531Z" fill="#D99D8F"/>
<path d="M8.61484 6.15375H7.3833V7.38528H8.61484V6.15375Z" fill="#D99D8F"/>
<path d="M8.61484 4.92432H7.3833V6.15374H8.61484V4.92432Z" fill="#D99D8F"/>
<path d="M8.61484 3.69263H7.3833V4.92416H8.61484V3.69263Z" fill="#CB5755"/>
<path d="M8.61484 2.46112H7.3833V3.69266H8.61484V2.46112Z" fill="#CB5755"/>
<path d="M8.61484 1.23151H7.3833V2.46094H8.61484V1.23151Z" fill="#CB5755"/>
<path d="M8.61484 0H7.3833V1.23154H8.61484V0Z" fill="#D99D8F"/>
<path d="M7.38275 14.7684H6.15332V16H7.38275V14.7684Z" fill="#535D80"/>
<path d="M7.38275 13.539H6.15332V14.7684H7.38275V13.539Z" fill="#535D80"/>
<path d="M7.38275 12.3074H6.15332V13.5389H7.38275V12.3074Z" fill="#535D80"/>
<path d="M7.38275 11.0779H6.15332V12.3074H7.38275V11.0779Z" fill="#535D80"/>
<path d="M7.38275 9.84637H6.15332V11.0779H7.38275V9.84637Z" fill="#19223B"/>
<path d="M7.38275 8.61469H6.15332V9.84622H7.38275V8.61469Z" fill="#D99D8F"/>
<path d="M7.38275 7.38531H6.15332V8.61474H7.38275V7.38531Z" fill="#D99D8F"/>
<path d="M7.38275 6.15375H6.15332V7.38528H7.38275V6.15375Z" fill="#D99D8F"/>
<path d="M7.38275 4.92432H6.15332V6.15374H7.38275V4.92432Z" fill="#D99D8F"/>
<path d="M7.38275 3.69263H6.15332V4.92416H7.38275V3.69263Z" fill="#D99D8F"/>
<path d="M7.38275 2.46112H6.15332V3.69266H7.38275V2.46112Z" fill="#CB5755"/>
<path d="M7.38275 1.23151H6.15332V2.46094H7.38275V1.23151Z" fill="#CB5755"/>
<path d="M7.38275 0H6.15332V1.23154H7.38275V0Z" fill="#F3D8C5"/>
<path d="M6.15341 14.7684H4.92188V16H6.15341V14.7684Z" fill="#F3D8C5"/>
<path d="M6.15341 13.539H4.92188V14.7684H6.15341V13.539Z" fill="#F3D8C5"/>
<path d="M6.15341 12.3074H4.92188V13.5389H6.15341V12.3074Z" fill="#F3D8C5"/>
<path d="M6.15341 11.0779H4.92188V12.3074H6.15341V11.0779Z" fill="#F3D8C5"/>
<path d="M6.15341 9.84637H4.92188V11.0779H6.15341V9.84637Z" fill="#19223B"/>
<path d="M6.15341 8.61469H4.92188V9.84622H6.15341V8.61469Z" fill="#D99D8F"/>
<path d="M6.15341 7.38531H4.92188V8.61474H6.15341V7.38531Z" fill="#D99D8F"/>
<path d="M6.15341 6.15375H4.92188V7.38528H6.15341V6.15375Z" fill="#D99D8F"/>
<path d="M6.15341 4.92432H4.92188V6.15374H6.15341V4.92432Z" fill="#D99D8F"/>
<path d="M6.15341 3.69263H4.92188V4.92416H6.15341V3.69263Z" fill="#F3D8C5"/>
<path d="M6.15341 2.46112H4.92188V3.69266H6.15341V2.46112Z" fill="#CB5755"/>
<path d="M6.15341 1.23151H4.92188V2.46094H6.15341V1.23151Z" fill="#CB5755"/>
<path d="M6.15341 0H4.92188V1.23154H6.15341V0Z" fill="#F3D8C5"/>
<path d="M4.92181 8.61469H3.69238V9.84622H4.92181V8.61469Z" fill="#D99D8F"/>
<path d="M4.92181 7.38531H3.69238V8.61474H4.92181V7.38531Z" fill="#D99D8F"/>
<path d="M4.92181 6.15375H3.69238V7.38528H4.92181V6.15375Z" fill="#D99D8F"/>
<path d="M4.92181 4.92432H3.69238V6.15374H4.92181V4.92432Z" fill="#F3D8C5"/>
<path d="M4.92181 3.69263H3.69238V4.92416H4.92181V3.69263Z" fill="#F3D8C5"/>
<path d="M4.92181 2.46112H3.69238V3.69266H4.92181V2.46112Z" fill="#D99D8F"/>
<path d="M4.92181 1.23151H3.69238V2.46094H4.92181V1.23151Z" fill="#CB5755"/>
<path d="M4.92181 0H3.69238V1.23154H4.92181V0Z" fill="#F3D8C5"/>
<path d="M3.69247 8.61469H2.46094V9.84622H3.69247V8.61469Z" fill="#D99D8F"/>
<path d="M3.69247 7.38531H2.46094V8.61474H3.69247V7.38531Z" fill="#F3D8C5"/>
<path d="M3.69247 6.15375H2.46094V7.38528H3.69247V6.15375Z" fill="#F3D8C5"/>
<path d="M3.69247 4.92432H2.46094V6.15374H3.69247V4.92432Z" fill="#F3D8C5"/>
<path d="M3.69247 1.23151H2.46094V2.46094H3.69247V1.23151Z" fill="#CB5755"/>
<path d="M3.69247 0H2.46094V1.23154H3.69247V0Z" fill="#D99D8F"/>
<path d="M2.46103 8.61469H1.22949V9.84622H2.46103V8.61469Z" fill="#D99D8F"/>
<path d="M2.46103 7.38531H1.22949V8.61474H2.46103V7.38531Z" fill="#F3D8C5"/>
<path d="M2.46103 6.15375H1.22949V7.38528H2.46103V6.15375Z" fill="#F3D8C5"/>
<path d="M1.22942 8.61469H0V9.84622H1.22942V8.61469Z" fill="#D99D8F"/>
</svg>
