<svg width="182" height="284" viewBox="0 0 182 284" fill="none" xmlns="http://www.w3.org/2000/svg">
<path d="M72.7711 164.665L108.811 168.658L120.876 204.794C120.47 204.718 119.935 204.635 119.292 204.571C117.753 204.418 115.587 204.375 113.065 204.813C108.01 205.69 101.557 208.493 95.8855 216.133C90.2959 223.66 77.8675 240.398 66.8364 255.255L52.3673 274.743L47.8491 280.828L46.607 282.501L46.4913 282.657L7.711 249.399L7.82908 249.278C8.14996 248.948 8.62244 248.463 9.2289 247.839C10.4418 246.592 12.1907 244.791 14.3346 242.576C18.6224 238.147 24.4907 232.063 30.8124 225.445C43.4514 212.212 57.9164 196.828 65.1793 188.261C72.4774 179.656 74.2654 173.564 74.1556 169.558C74.1008 167.554 73.5713 166.094 73.0435 165.125C72.9517 164.957 72.86 164.803 72.7711 164.665Z" stroke="#FAF3E0"/>
<path d="M97.0305 54.3188L97.0305 54.3188C116.204 31.9627 138.263 15.8365 161.208 10.1882C184.124 4.54693 207.983 9.3415 230.838 28.9408C254.524 49.2563 262.892 72.1052 260.604 95.429C258.312 118.787 245.324 142.693 226.143 165.057C206.973 187.408 184.637 203.298 161.552 208.828C138.492 214.352 114.634 209.553 92.3365 190.432C70.8736 172.023 62.4897 149.174 64.2304 125.355C65.9727 101.516 77.8631 76.6649 97.0305 54.3188Z" stroke="#FAF3E0"/>
<path d="M88.3097 46.8369L88.3098 46.8369C107.482 24.4808 129.541 8.35487 152.486 2.70703C175.403 -2.93372 199.26 1.86159 222.114 21.4619C245.801 41.7765 254.169 64.6248 251.88 87.9479C249.588 111.306 236.599 135.211 217.42 157.573C198.251 179.926 175.915 195.817 152.83 201.348C129.77 206.872 105.911 202.074 83.6127 182.951C62.1508 164.543 53.7676 141.694 55.5089 117.875C57.2517 94.0344 69.1423 69.183 88.3097 46.8369Z" stroke="#FAF3E0"/>
<path d="M83.6123 182.951C56.1861 159.427 50.1233 128.632 59.2881 97.8008L171.889 194.372C157.629 201.349 142.804 204.599 128.017 203.13C112.999 201.639 97.9853 195.277 83.6123 182.951Z" stroke="#FAF3E0"/>
<path d="M58.1982 182.607L58.1984 182.607C65.493 174.001 67.2804 167.908 67.1711 163.902C67.1164 161.899 66.5873 160.438 66.06 159.469C65.9681 159.301 65.8765 159.147 65.7876 159.009L101.827 163.001L113.892 199.139C113.486 199.063 112.952 198.98 112.308 198.916C110.769 198.763 108.603 198.72 106.082 199.158C101.026 200.035 94.5731 202.838 88.8996 210.478L89.301 210.776L88.8996 210.478C83.3106 218.006 70.8821 234.744 59.8508 249.601L45.3815 269.088L40.8632 275.173L39.6211 276.846L39.5053 277.002L0.729967 243.745L0.848082 243.624C1.16891 243.294 1.6413 242.809 2.24766 242.185C3.46037 240.938 5.20895 239.136 7.35257 236.922C11.6398 232.492 17.5073 226.408 23.8285 219.789C36.4665 206.556 50.9315 191.171 58.1982 182.607Z" stroke="#FAF3E0"/>
</svg>
