<svg width="54" height="54" viewBox="0 0 54 54" fill="none" xmlns="http://www.w3.org/2000/svg">
<path d="M52.5246 31.3687L53.0167 31.4574L52.5246 31.3688C49.9575 45.6211 36.3284 55.0934 22.0773 52.5273C7.82704 49.9622 -1.64725 36.3302 0.919779 22.0771C3.48684 7.82769 17.119 -1.64655 31.3671 0.919489L31.3671 0.919492C45.6184 3.48556 55.0916 17.1196 52.5246 31.3687Z" stroke="#FAF3E0"/>
<path d="M28.998 42.3465L28.9981 42.3465C37.1145 43.8073 45.0315 41.5089 50.9686 36.6964C46.378 47.8885 34.4649 54.7563 22.0783 52.5263L21.9897 53.0184L22.0783 52.5263C7.82803 49.9612 -1.64629 36.3292 0.920759 22.076L0.920792 22.0758C1.83419 16.9933 4.15751 12.5201 7.41363 8.984C7.26924 9.55945 7.14261 10.1436 7.0366 10.7358C4.37165 25.5305 14.2033 39.6815 28.998 42.3465Z" stroke="#FAF3E0"/>
<path d="M45.517 22.8724L45.517 22.8725C42.8263 27.7384 36.1561 29.3045 30.5626 26.21C24.9765 23.1187 22.7613 16.6299 25.453 11.7676L25.4531 11.7675C28.1438 6.90336 34.8141 5.33559 40.4044 8.42992L40.4047 8.43007C45.9955 11.5203 48.209 18.006 45.517 22.8724Z" stroke="#FAF3E0"/>
</svg>
