<svg width="18" height="16" viewBox="0 0 18 16" fill="none" xmlns="http://www.w3.org/2000/svg">
<path d="M15.4131 3.90208C15.3007 4.00508 15.1544 4.0631 15.0021 4.06508H0.580054C0.0680543 4.06508 -0.189946 3.48008 0.164054 3.13708L2.53305 0.853082C2.64312 0.746457 2.78982 0.685989 2.94305 0.684082H17.4201C17.9371 0.684082 18.1901 1.27408 17.8301 1.61908L15.4131 3.90208Z" fill="url(#paint0_linear_700_587)"/>
<path d="M15.4131 15.1582C15.3 15.2594 15.1538 15.3156 15.0021 15.3162H0.580054C0.0680543 15.3162 -0.189946 14.7362 0.164054 14.3932L2.53305 12.1032C2.64406 11.9988 2.79065 11.9405 2.94305 11.9402H17.4201C17.9371 11.9402 18.1901 12.5262 17.8301 12.8682L15.4131 15.1582Z" fill="url(#paint1_linear_700_587)"/>
<path d="M15.4131 6.47319C15.3 6.37201 15.1538 6.31579 15.0021 6.31519H0.580054C0.0680543 6.31519 -0.189946 6.89519 0.164054 7.23819L2.53305 9.52819C2.64405 9.63119 2.79005 9.68819 2.94305 9.69119H17.4201C17.9371 9.69119 18.1901 9.10519 17.8301 8.76319L15.4131 6.47319Z" fill="url(#paint2_linear_700_587)"/>
<defs>
<linearGradient id="paint0_linear_700_587" x1="0.00105441" y1="51.0411" x2="18.4591" y2="50.8711" gradientUnits="userSpaceOnUse">
<stop stop-color="#599DB0"/>
<stop offset="1" stop-color="#47F8C3"/>
</linearGradient>
<linearGradient id="paint1_linear_700_587" x1="0.00105439" y1="5.16818" x2="18.3411" y2="5.02718" gradientUnits="userSpaceOnUse">
<stop stop-color="#C44FE2"/>
<stop offset="1" stop-color="#73B0D0"/>
</linearGradient>
<linearGradient id="paint2_linear_700_587" x1="1.03605" y1="8.00319" x2="17.3031" y2="8.00319" gradientUnits="userSpaceOnUse">
<stop stop-color="#778CBF"/>
<stop offset="1" stop-color="#5DCDC9"/>
</linearGradient>
</defs>
</svg>
